<svg xmlns="http://www.w3.org/2000/svg" xmlns:xlink="http://www.w3.org/1999/xlink" width="600" height="400" viewBox="0 0 2400 1600">
<defs>
  <clipPath id="clip200">
    <rect x="0" y="0" width="2400" height="1600"></rect>
  </clipPath>
</defs>
<path clip-path="url(#clip200)" d="
M0 1600 L2400 1600 L2400 0 L0 0  Z
  " fill="#ffffff" fill-rule="evenodd" fill-opacity="1"></path>
<defs>
  <clipPath id="clip201">
    <rect x="480" y="0" width="1681" height="1600"></rect>
  </clipPath>
</defs>
<path clip-path="url(#clip200)" d="
M254.542 1423.18 L2352.76 1423.18 L2352.76 47.2441 L254.542 47.2441  Z
  " fill="#ffffff" fill-rule="evenodd" fill-opacity="1"></path>
<defs>
  <clipPath id="clip202">
    <rect x="254" y="47" width="2099" height="1377"></rect>
  </clipPath>
</defs>
<polyline clip-path="url(#clip202)" style="stroke:#000000; stroke-width:2; stroke-opacity:0.1; fill:none" points="
  561.356,1423.18 561.356,47.2441 
  "></polyline>
<polyline clip-path="url(#clip202)" style="stroke:#000000; stroke-width:2; stroke-opacity:0.1; fill:none" points="
  932.503,1423.18 932.503,47.2441 
  "></polyline>
<polyline clip-path="url(#clip202)" style="stroke:#000000; stroke-width:2; stroke-opacity:0.1; fill:none" points="
  1303.65,1423.18 1303.65,47.2441 
  "></polyline>
<polyline clip-path="url(#clip202)" style="stroke:#000000; stroke-width:2; stroke-opacity:0.1; fill:none" points="
  1674.8,1423.18 1674.8,47.2441 
  "></polyline>
<polyline clip-path="url(#clip202)" style="stroke:#000000; stroke-width:2; stroke-opacity:0.1; fill:none" points="
  2045.94,1423.18 2045.94,47.2441 
  "></polyline>
<polyline clip-path="url(#clip200)" style="stroke:#000000; stroke-width:4; stroke-opacity:1; fill:none" points="
  254.542,1423.18 2352.76,1423.18 
  "></polyline>
<polyline clip-path="url(#clip200)" style="stroke:#000000; stroke-width:4; stroke-opacity:1; fill:none" points="
  561.356,1423.18 561.356,1406.67 
  "></polyline>
<polyline clip-path="url(#clip200)" style="stroke:#000000; stroke-width:4; stroke-opacity:1; fill:none" points="
  932.503,1423.18 932.503,1406.67 
  "></polyline>
<polyline clip-path="url(#clip200)" style="stroke:#000000; stroke-width:4; stroke-opacity:1; fill:none" points="
  1303.65,1423.18 1303.65,1406.67 
  "></polyline>
<polyline clip-path="url(#clip200)" style="stroke:#000000; stroke-width:4; stroke-opacity:1; fill:none" points="
  1674.8,1423.18 1674.8,1406.67 
  "></polyline>
<polyline clip-path="url(#clip200)" style="stroke:#000000; stroke-width:4; stroke-opacity:1; fill:none" points="
  2045.94,1423.18 2045.94,1406.67 
  "></polyline>
<path clip-path="url(#clip200)" d="M 0 0 M534.748 1464.71 Q531.6 1464.71 529.748 1466.86 Q527.919 1469.01 527.919 1472.76 Q527.919 1476.49 529.748 1478.67 Q531.6 1480.82 534.748 1480.82 Q537.896 1480.82 539.724 1478.67 Q541.576 1476.49 541.576 1472.76 Q541.576 1469.01 539.724 1466.86 Q537.896 1464.71 534.748 1464.71 M544.03 1450.06 L544.03 1454.31 Q542.271 1453.48 540.465 1453.04 Q538.683 1452.6 536.924 1452.6 Q532.294 1452.6 529.84 1455.73 Q527.41 1458.85 527.063 1465.17 Q528.428 1463.16 530.488 1462.09 Q532.549 1461 535.025 1461 Q540.234 1461 543.243 1464.18 Q546.275 1467.32 546.275 1472.76 Q546.275 1478.09 543.127 1481.31 Q539.979 1484.52 534.748 1484.52 Q528.752 1484.52 525.581 1479.94 Q522.41 1475.33 522.41 1466.61 Q522.41 1458.41 526.299 1453.55 Q530.187 1448.67 536.738 1448.67 Q538.498 1448.67 540.28 1449.01 Q542.086 1449.36 544.03 1450.06 Z" fill="#000000" fill-rule="evenodd" fill-opacity="1"></path><path clip-path="url(#clip200)" d="M 0 0 M561.345 1452.37 Q557.734 1452.37 555.905 1455.94 Q554.099 1459.48 554.099 1466.61 Q554.099 1473.71 555.905 1477.28 Q557.734 1480.82 561.345 1480.82 Q564.979 1480.82 566.785 1477.28 Q568.613 1473.71 568.613 1466.61 Q568.613 1459.48 566.785 1455.94 Q564.979 1452.37 561.345 1452.37 M561.345 1448.67 Q567.155 1448.67 570.21 1453.27 Q573.289 1457.86 573.289 1466.61 Q573.289 1475.33 570.21 1479.94 Q567.155 1484.52 561.345 1484.52 Q555.535 1484.52 552.456 1479.94 Q549.4 1475.33 549.4 1466.61 Q549.4 1457.86 552.456 1453.27 Q555.535 1448.67 561.345 1448.67 Z" fill="#000000" fill-rule="evenodd" fill-opacity="1"></path><path clip-path="url(#clip200)" d="M 0 0 M588.358 1452.37 Q584.747 1452.37 582.919 1455.94 Q581.113 1459.48 581.113 1466.61 Q581.113 1473.71 582.919 1477.28 Q584.747 1480.82 588.358 1480.82 Q591.993 1480.82 593.798 1477.28 Q595.627 1473.71 595.627 1466.61 Q595.627 1459.48 593.798 1455.94 Q591.993 1452.37 588.358 1452.37 M588.358 1448.67 Q594.169 1448.67 597.224 1453.27 Q600.303 1457.86 600.303 1466.61 Q600.303 1475.33 597.224 1479.94 Q594.169 1484.52 588.358 1484.52 Q582.548 1484.52 579.47 1479.94 Q576.414 1475.33 576.414 1466.61 Q576.414 1457.86 579.47 1453.27 Q582.548 1448.67 588.358 1448.67 Z" fill="#000000" fill-rule="evenodd" fill-opacity="1"></path><path clip-path="url(#clip200)" d="M 0 0 M895.79 1483.13 L895.79 1478.88 Q897.549 1479.71 899.355 1480.15 Q901.16 1480.59 902.896 1480.59 Q907.526 1480.59 909.956 1477.49 Q912.41 1474.36 912.757 1468.02 Q911.415 1470.01 909.355 1471.07 Q907.294 1472.14 904.794 1472.14 Q899.609 1472.14 896.577 1469.01 Q893.568 1465.87 893.568 1460.43 Q893.568 1455.1 896.716 1451.88 Q899.864 1448.67 905.095 1448.67 Q911.091 1448.67 914.239 1453.27 Q917.41 1457.86 917.41 1466.61 Q917.41 1474.78 913.521 1479.66 Q909.656 1484.52 903.105 1484.52 Q901.345 1484.52 899.54 1484.18 Q897.734 1483.83 895.79 1483.13 M905.095 1468.48 Q908.243 1468.48 910.072 1466.33 Q911.924 1464.18 911.924 1460.43 Q911.924 1456.7 910.072 1454.55 Q908.243 1452.37 905.095 1452.37 Q901.947 1452.37 900.095 1454.55 Q898.267 1456.7 898.267 1460.43 Q898.267 1464.18 900.095 1466.33 Q901.947 1468.48 905.095 1468.48 Z" fill="#000000" fill-rule="evenodd" fill-opacity="1"></path><path clip-path="url(#clip200)" d="M 0 0 M932.479 1452.37 Q928.868 1452.37 927.04 1455.94 Q925.234 1459.48 925.234 1466.61 Q925.234 1473.71 927.04 1477.28 Q928.868 1480.82 932.479 1480.82 Q936.114 1480.82 937.919 1477.28 Q939.748 1473.71 939.748 1466.61 Q939.748 1459.48 937.919 1455.94 Q936.114 1452.37 932.479 1452.37 M932.479 1448.67 Q938.29 1448.67 941.345 1453.27 Q944.424 1457.86 944.424 1466.61 Q944.424 1475.33 941.345 1479.94 Q938.29 1484.52 932.479 1484.52 Q926.669 1484.52 923.591 1479.94 Q920.535 1475.33 920.535 1466.61 Q920.535 1457.86 923.591 1453.27 Q926.669 1448.67 932.479 1448.67 Z" fill="#000000" fill-rule="evenodd" fill-opacity="1"></path><path clip-path="url(#clip200)" d="M 0 0 M959.493 1452.37 Q955.882 1452.37 954.053 1455.94 Q952.248 1459.48 952.248 1466.61 Q952.248 1473.71 954.053 1477.28 Q955.882 1480.82 959.493 1480.82 Q963.127 1480.82 964.933 1477.28 Q966.762 1473.71 966.762 1466.61 Q966.762 1459.48 964.933 1455.94 Q963.127 1452.37 959.493 1452.37 M959.493 1448.67 Q965.303 1448.67 968.359 1453.27 Q971.438 1457.86 971.438 1466.61 Q971.438 1475.33 968.359 1479.94 Q965.303 1484.52 959.493 1484.52 Q953.683 1484.52 950.604 1479.94 Q947.549 1475.33 947.549 1466.61 Q947.549 1457.86 950.604 1453.27 Q953.683 1448.67 959.493 1448.67 Z" fill="#000000" fill-rule="evenodd" fill-opacity="1"></path><path clip-path="url(#clip200)" d="M 0 0 M1254.31 1479.92 L1261.95 1479.92 L1261.95 1453.55 L1253.64 1455.22 L1253.64 1450.96 L1261.9 1449.29 L1266.58 1449.29 L1266.58 1479.92 L1274.22 1479.92 L1274.22 1483.85 L1254.31 1483.85 L1254.31 1479.92 Z" fill="#000000" fill-rule="evenodd" fill-opacity="1"></path><path clip-path="url(#clip200)" d="M 0 0 M1283.31 1479.92 L1299.63 1479.92 L1299.63 1483.85 L1277.69 1483.85 L1277.69 1479.92 Q1280.35 1477.16 1284.93 1472.53 Q1289.54 1467.88 1290.72 1466.54 Q1292.97 1464.01 1293.85 1462.28 Q1294.75 1460.52 1294.75 1458.83 Q1294.75 1456.07 1292.8 1454.34 Q1290.88 1452.6 1287.78 1452.6 Q1285.58 1452.6 1283.13 1453.37 Q1280.7 1454.13 1277.92 1455.68 L1277.92 1450.96 Q1280.74 1449.82 1283.2 1449.25 Q1285.65 1448.67 1287.69 1448.67 Q1293.06 1448.67 1296.25 1451.35 Q1299.45 1454.04 1299.45 1458.53 Q1299.45 1460.66 1298.64 1462.58 Q1297.85 1464.48 1295.74 1467.07 Q1295.17 1467.74 1292.06 1470.96 Q1288.96 1474.15 1283.31 1479.92 Z" fill="#000000" fill-rule="evenodd" fill-opacity="1"></path><path clip-path="url(#clip200)" d="M 0 0 M1314.7 1452.37 Q1311.09 1452.37 1309.26 1455.94 Q1307.46 1459.48 1307.46 1466.61 Q1307.46 1473.71 1309.26 1477.28 Q1311.09 1480.82 1314.7 1480.82 Q1318.34 1480.82 1320.14 1477.28 Q1321.97 1473.71 1321.97 1466.61 Q1321.97 1459.48 1320.14 1455.94 Q1318.34 1452.37 1314.7 1452.37 M1314.7 1448.67 Q1320.51 1448.67 1323.57 1453.27 Q1326.65 1457.86 1326.65 1466.61 Q1326.65 1475.33 1323.57 1479.94 Q1320.51 1484.52 1314.7 1484.52 Q1308.89 1484.52 1305.81 1479.94 Q1302.76 1475.33 1302.76 1466.61 Q1302.76 1457.86 1305.81 1453.27 Q1308.89 1448.67 1314.7 1448.67 Z" fill="#000000" fill-rule="evenodd" fill-opacity="1"></path><path clip-path="url(#clip200)" d="M 0 0 M1341.72 1452.37 Q1338.1 1452.37 1336.28 1455.94 Q1334.47 1459.48 1334.47 1466.61 Q1334.47 1473.71 1336.28 1477.28 Q1338.1 1480.82 1341.72 1480.82 Q1345.35 1480.82 1347.16 1477.28 Q1348.98 1473.71 1348.98 1466.61 Q1348.98 1459.48 1347.16 1455.94 Q1345.35 1452.37 1341.72 1452.37 M1341.72 1448.67 Q1347.53 1448.67 1350.58 1453.27 Q1353.66 1457.86 1353.66 1466.61 Q1353.66 1475.33 1350.58 1479.94 Q1347.53 1484.52 1341.72 1484.52 Q1335.91 1484.52 1332.83 1479.94 Q1329.77 1475.33 1329.77 1466.61 Q1329.77 1457.86 1332.83 1453.27 Q1335.91 1448.67 1341.72 1448.67 Z" fill="#000000" fill-rule="evenodd" fill-opacity="1"></path><path clip-path="url(#clip200)" d="M 0 0 M1625.15 1479.92 L1632.79 1479.92 L1632.79 1453.55 L1624.48 1455.22 L1624.48 1450.96 L1632.75 1449.29 L1637.42 1449.29 L1637.42 1479.92 L1645.06 1479.92 L1645.06 1483.85 L1625.15 1483.85 L1625.15 1479.92 Z" fill="#000000" fill-rule="evenodd" fill-opacity="1"></path><path clip-path="url(#clip200)" d="M 0 0 M1650.18 1449.29 L1668.53 1449.29 L1668.53 1453.23 L1654.46 1453.23 L1654.46 1461.7 Q1655.48 1461.35 1656.5 1461.19 Q1657.52 1461 1658.53 1461 Q1664.32 1461 1667.7 1464.18 Q1671.08 1467.35 1671.08 1472.76 Q1671.08 1478.34 1667.61 1481.44 Q1664.14 1484.52 1657.82 1484.52 Q1655.64 1484.52 1653.37 1484.15 Q1651.13 1483.78 1648.72 1483.04 L1648.72 1478.34 Q1650.8 1479.48 1653.02 1480.03 Q1655.25 1480.59 1657.72 1480.59 Q1661.73 1480.59 1664.07 1478.48 Q1666.4 1476.38 1666.4 1472.76 Q1666.4 1469.15 1664.07 1467.05 Q1661.73 1464.94 1657.72 1464.94 Q1655.85 1464.94 1653.97 1465.36 Q1652.12 1465.77 1650.18 1466.65 L1650.18 1449.29 Z" fill="#000000" fill-rule="evenodd" fill-opacity="1"></path><path clip-path="url(#clip200)" d="M 0 0 M1686.15 1452.37 Q1682.54 1452.37 1680.71 1455.94 Q1678.9 1459.48 1678.9 1466.61 Q1678.9 1473.71 1680.71 1477.28 Q1682.54 1480.82 1686.15 1480.82 Q1689.78 1480.82 1691.59 1477.28 Q1693.42 1473.71 1693.42 1466.61 Q1693.42 1459.48 1691.59 1455.94 Q1689.78 1452.37 1686.15 1452.37 M1686.15 1448.67 Q1691.96 1448.67 1695.02 1453.27 Q1698.09 1457.86 1698.09 1466.61 Q1698.09 1475.33 1695.02 1479.94 Q1691.96 1484.52 1686.15 1484.52 Q1680.34 1484.52 1677.26 1479.94 Q1674.21 1475.33 1674.21 1466.61 Q1674.21 1457.86 1677.26 1453.27 Q1680.34 1448.67 1686.15 1448.67 Z" fill="#000000" fill-rule="evenodd" fill-opacity="1"></path><path clip-path="url(#clip200)" d="M 0 0 M1713.16 1452.37 Q1709.55 1452.37 1707.72 1455.94 Q1705.92 1459.48 1705.92 1466.61 Q1705.92 1473.71 1707.72 1477.28 Q1709.55 1480.82 1713.16 1480.82 Q1716.8 1480.82 1718.6 1477.28 Q1720.43 1473.71 1720.43 1466.61 Q1720.43 1459.48 1718.6 1455.94 Q1716.8 1452.37 1713.16 1452.37 M1713.16 1448.67 Q1718.97 1448.67 1722.03 1453.27 Q1725.11 1457.86 1725.11 1466.61 Q1725.11 1475.33 1722.03 1479.94 Q1718.97 1484.52 1713.16 1484.52 Q1707.35 1484.52 1704.27 1479.94 Q1701.22 1475.33 1701.22 1466.61 Q1701.22 1457.86 1704.27 1453.27 Q1707.35 1448.67 1713.16 1448.67 Z" fill="#000000" fill-rule="evenodd" fill-opacity="1"></path><path clip-path="url(#clip200)" d="M 0 0 M1995.85 1479.92 L2003.49 1479.92 L2003.49 1453.55 L1995.18 1455.22 L1995.18 1450.96 L2003.44 1449.29 L2008.12 1449.29 L2008.12 1479.92 L2015.76 1479.92 L2015.76 1483.85 L1995.85 1483.85 L1995.85 1479.92 Z" fill="#000000" fill-rule="evenodd" fill-opacity="1"></path><path clip-path="url(#clip200)" d="M 0 0 M2030.83 1467.44 Q2027.49 1467.44 2025.57 1469.22 Q2023.67 1471 2023.67 1474.13 Q2023.67 1477.25 2025.57 1479.04 Q2027.49 1480.82 2030.83 1480.82 Q2034.16 1480.82 2036.08 1479.04 Q2038 1477.23 2038 1474.13 Q2038 1471 2036.08 1469.22 Q2034.18 1467.44 2030.83 1467.44 M2026.15 1465.45 Q2023.14 1464.71 2021.45 1462.65 Q2019.78 1460.59 2019.78 1457.63 Q2019.78 1453.48 2022.72 1451.07 Q2025.69 1448.67 2030.83 1448.67 Q2035.99 1448.67 2038.93 1451.07 Q2041.87 1453.48 2041.87 1457.63 Q2041.87 1460.59 2040.18 1462.65 Q2038.51 1464.71 2035.52 1465.45 Q2038.9 1466.24 2040.78 1468.53 Q2042.68 1470.82 2042.68 1474.13 Q2042.68 1479.15 2039.6 1481.84 Q2036.54 1484.52 2030.83 1484.52 Q2025.11 1484.52 2022.03 1481.84 Q2018.97 1479.15 2018.97 1474.13 Q2018.97 1470.82 2020.87 1468.53 Q2022.77 1466.24 2026.15 1465.45 M2024.44 1458.06 Q2024.44 1460.75 2026.1 1462.25 Q2027.79 1463.76 2030.83 1463.76 Q2033.84 1463.76 2035.52 1462.25 Q2037.24 1460.75 2037.24 1458.06 Q2037.24 1455.38 2035.52 1453.88 Q2033.84 1452.37 2030.83 1452.37 Q2027.79 1452.37 2026.1 1453.88 Q2024.44 1455.38 2024.44 1458.06 Z" fill="#000000" fill-rule="evenodd" fill-opacity="1"></path><path clip-path="url(#clip200)" d="M 0 0 M2057.75 1452.37 Q2054.14 1452.37 2052.31 1455.94 Q2050.5 1459.48 2050.5 1466.61 Q2050.5 1473.71 2052.31 1477.28 Q2054.14 1480.82 2057.75 1480.82 Q2061.38 1480.82 2063.19 1477.28 Q2065.02 1473.71 2065.02 1466.61 Q2065.02 1459.48 2063.19 1455.94 Q2061.38 1452.37 2057.75 1452.37 M2057.75 1448.67 Q2063.56 1448.67 2066.61 1453.27 Q2069.69 1457.86 2069.69 1466.61 Q2069.69 1475.33 2066.61 1479.94 Q2063.56 1484.52 2057.75 1484.52 Q2051.94 1484.52 2048.86 1479.94 Q2045.8 1475.33 2045.8 1466.61 Q2045.8 1457.86 2048.86 1453.27 Q2051.94 1448.67 2057.75 1448.67 Z" fill="#000000" fill-rule="evenodd" fill-opacity="1"></path><path clip-path="url(#clip200)" d="M 0 0 M2084.76 1452.37 Q2081.15 1452.37 2079.32 1455.94 Q2077.52 1459.48 2077.52 1466.61 Q2077.52 1473.71 2079.32 1477.28 Q2081.15 1480.82 2084.76 1480.82 Q2088.4 1480.82 2090.2 1477.28 Q2092.03 1473.71 2092.03 1466.61 Q2092.03 1459.48 2090.2 1455.94 Q2088.4 1452.37 2084.76 1452.37 M2084.76 1448.67 Q2090.57 1448.67 2093.63 1453.27 Q2096.71 1457.86 2096.71 1466.61 Q2096.71 1475.33 2093.63 1479.94 Q2090.57 1484.52 2084.76 1484.52 Q2078.95 1484.52 2075.87 1479.94 Q2072.82 1475.33 2072.82 1466.61 Q2072.82 1457.86 2075.87 1453.27 Q2078.95 1448.67 2084.76 1448.67 Z" fill="#000000" fill-rule="evenodd" fill-opacity="1"></path><path clip-path="url(#clip200)" d="M 0 0 M889.894 1508.52 L899.474 1508.52 L911.601 1540.86 L923.791 1508.52 L933.372 1508.52 L933.372 1556.04 L927.101 1556.04 L927.101 1514.32 L914.848 1546.91 L908.386 1546.91 L896.132 1514.32 L896.132 1556.04 L889.894 1556.04 L889.894 1508.52 Z" fill="#000000" fill-rule="evenodd" fill-opacity="1"></path><path clip-path="url(#clip200)" d="M 0 0 M955.715 1538.12 Q948.618 1538.12 945.88 1539.75 Q943.143 1541.37 943.143 1545.29 Q943.143 1548.4 945.18 1550.25 Q947.249 1552.07 950.782 1552.07 Q955.652 1552.07 958.58 1548.63 Q961.54 1545.16 961.54 1539.43 L961.54 1538.12 L955.715 1538.12 M967.396 1535.71 L967.396 1556.04 L961.54 1556.04 L961.54 1550.63 Q959.535 1553.88 956.543 1555.44 Q953.551 1556.97 949.222 1556.97 Q943.748 1556.97 940.501 1553.91 Q937.287 1550.82 937.287 1545.67 Q937.287 1539.65 941.297 1536.6 Q945.339 1533.54 953.328 1533.54 L961.54 1533.54 L961.54 1532.97 Q961.54 1528.93 958.866 1526.73 Q956.225 1524.5 951.418 1524.5 Q948.363 1524.5 945.467 1525.23 Q942.57 1525.97 939.897 1527.43 L939.897 1522.02 Q943.111 1520.78 946.135 1520.17 Q949.159 1519.54 952.023 1519.54 Q959.758 1519.54 963.577 1523.55 Q967.396 1527.56 967.396 1535.71 Z" fill="#000000" fill-rule="evenodd" fill-opacity="1"></path><path clip-path="url(#clip200)" d="M 0 0 M1003.17 1520.4 L990.281 1537.74 L1003.84 1556.04 L996.933 1556.04 L986.557 1542.04 L976.181 1556.04 L969.274 1556.04 L983.12 1537.39 L970.452 1520.4 L977.359 1520.4 L986.812 1533.1 L996.265 1520.4 L1003.17 1520.4 Z" fill="#000000" fill-rule="evenodd" fill-opacity="1"></path><path clip-path="url(#clip200)" d="M 0 0 M1009.98 1520.4 L1015.84 1520.4 L1015.84 1556.04 L1009.98 1556.04 L1009.98 1520.4 M1009.98 1506.52 L1015.84 1506.52 L1015.84 1513.93 L1009.98 1513.93 L1009.98 1506.52 Z" fill="#000000" fill-rule="evenodd" fill-opacity="1"></path><path clip-path="url(#clip200)" d="M 0 0 M1049.74 1527.24 Q1051.93 1523.29 1054.99 1521.41 Q1058.04 1519.54 1062.18 1519.54 Q1067.75 1519.54 1070.78 1523.45 Q1073.8 1527.33 1073.8 1534.53 L1073.8 1556.04 L1067.91 1556.04 L1067.91 1534.72 Q1067.91 1529.59 1066.1 1527.11 Q1064.28 1524.63 1060.56 1524.63 Q1056.01 1524.63 1053.37 1527.65 Q1050.72 1530.68 1050.72 1535.9 L1050.72 1556.04 L1044.84 1556.04 L1044.84 1534.72 Q1044.84 1529.56 1043.02 1527.11 Q1041.21 1524.63 1037.42 1524.63 Q1032.93 1524.63 1030.29 1527.68 Q1027.65 1530.71 1027.65 1535.9 L1027.65 1556.04 L1021.76 1556.04 L1021.76 1520.4 L1027.65 1520.4 L1027.65 1525.93 Q1029.65 1522.66 1032.45 1521.1 Q1035.25 1519.54 1039.11 1519.54 Q1042.99 1519.54 1045.69 1521.51 Q1048.43 1523.48 1049.74 1527.24 Z" fill="#000000" fill-rule="evenodd" fill-opacity="1"></path><path clip-path="url(#clip200)" d="M 0 0 M1079.34 1541.98 L1079.34 1520.4 L1085.19 1520.4 L1085.19 1541.75 Q1085.19 1546.81 1087.17 1549.36 Q1089.14 1551.87 1093.09 1551.87 Q1097.83 1551.87 1100.57 1548.85 Q1103.34 1545.83 1103.34 1540.61 L1103.34 1520.4 L1109.19 1520.4 L1109.19 1556.04 L1103.34 1556.04 L1103.34 1550.57 Q1101.2 1553.82 1098.37 1555.41 Q1095.57 1556.97 1091.85 1556.97 Q1085.7 1556.97 1082.52 1553.15 Q1079.34 1549.33 1079.34 1541.98 M1094.07 1519.54 L1094.07 1519.54 Z" fill="#000000" fill-rule="evenodd" fill-opacity="1"></path><path clip-path="url(#clip200)" d="M 0 0 M1143.09 1527.24 Q1145.29 1523.29 1148.34 1521.41 Q1151.4 1519.54 1155.53 1519.54 Q1161.1 1519.54 1164.13 1523.45 Q1167.15 1527.33 1167.15 1534.53 L1167.15 1556.04 L1161.26 1556.04 L1161.26 1534.72 Q1161.26 1529.59 1159.45 1527.11 Q1157.64 1524.63 1153.91 1524.63 Q1149.36 1524.63 1146.72 1527.65 Q1144.08 1530.68 1144.08 1535.9 L1144.08 1556.04 L1138.19 1556.04 L1138.19 1534.72 Q1138.19 1529.56 1136.37 1527.11 Q1134.56 1524.63 1130.77 1524.63 Q1126.28 1524.63 1123.64 1527.68 Q1121 1530.71 1121 1535.9 L1121 1556.04 L1115.11 1556.04 L1115.11 1520.4 L1121 1520.4 L1121 1525.93 Q1123.01 1522.66 1125.81 1521.1 Q1128.61 1519.54 1132.46 1519.54 Q1136.34 1519.54 1139.05 1521.51 Q1141.78 1523.48 1143.09 1527.24 Z" fill="#000000" fill-rule="evenodd" fill-opacity="1"></path><path clip-path="url(#clip200)" d="M 0 0 M1199.81 1510.27 L1199.81 1520.4 L1211.87 1520.4 L1211.87 1524.95 L1199.81 1524.95 L1199.81 1544.3 Q1199.81 1548.66 1200.99 1549.9 Q1202.2 1551.14 1205.86 1551.14 L1211.87 1551.14 L1211.87 1556.04 L1205.86 1556.04 Q1199.08 1556.04 1196.5 1553.53 Q1193.92 1550.98 1193.92 1544.3 L1193.92 1524.95 L1189.62 1524.95 L1189.62 1520.4 L1193.92 1520.4 L1193.92 1510.27 L1199.81 1510.27 Z" fill="#000000" fill-rule="evenodd" fill-opacity="1"></path><path clip-path="url(#clip200)" d="M 0 0 M1231.83 1524.5 Q1227.12 1524.5 1224.38 1528.19 Q1221.64 1531.85 1221.64 1538.25 Q1221.64 1544.65 1224.35 1548.34 Q1227.09 1552 1231.83 1552 Q1236.51 1552 1239.24 1548.31 Q1241.98 1544.62 1241.98 1538.25 Q1241.98 1531.92 1239.24 1528.23 Q1236.51 1524.5 1231.83 1524.5 M1231.83 1519.54 Q1239.47 1519.54 1243.83 1524.5 Q1248.19 1529.47 1248.19 1538.25 Q1248.19 1547 1243.83 1552 Q1239.47 1556.97 1231.83 1556.97 Q1224.16 1556.97 1219.8 1552 Q1215.47 1547 1215.47 1538.25 Q1215.47 1529.47 1219.8 1524.5 Q1224.16 1519.54 1231.83 1519.54 Z" fill="#000000" fill-rule="evenodd" fill-opacity="1"></path><path clip-path="url(#clip200)" d="M 0 0 M1260.12 1510.27 L1260.12 1520.4 L1272.19 1520.4 L1272.19 1524.95 L1260.12 1524.95 L1260.12 1544.3 Q1260.12 1548.66 1261.3 1549.9 Q1262.51 1551.14 1266.17 1551.14 L1272.19 1551.14 L1272.19 1556.04 L1266.17 1556.04 Q1259.39 1556.04 1256.81 1553.53 Q1254.24 1550.98 1254.24 1544.3 L1254.24 1524.95 L1249.94 1524.95 L1249.94 1520.4 L1254.24 1520.4 L1254.24 1510.27 L1260.12 1510.27 Z" fill="#000000" fill-rule="evenodd" fill-opacity="1"></path><path clip-path="url(#clip200)" d="M 0 0 M1294.53 1538.12 Q1287.43 1538.12 1284.7 1539.75 Q1281.96 1541.37 1281.96 1545.29 Q1281.96 1548.4 1283.99 1550.25 Q1286.06 1552.07 1289.6 1552.07 Q1294.47 1552.07 1297.39 1548.63 Q1300.35 1545.16 1300.35 1539.43 L1300.35 1538.12 L1294.53 1538.12 M1306.21 1535.71 L1306.21 1556.04 L1300.35 1556.04 L1300.35 1550.63 Q1298.35 1553.88 1295.36 1555.44 Q1292.37 1556.97 1288.04 1556.97 Q1282.56 1556.97 1279.32 1553.91 Q1276.1 1550.82 1276.1 1545.67 Q1276.1 1539.65 1280.11 1536.6 Q1284.15 1533.54 1292.14 1533.54 L1300.35 1533.54 L1300.35 1532.97 Q1300.35 1528.93 1297.68 1526.73 Q1295.04 1524.5 1290.23 1524.5 Q1287.18 1524.5 1284.28 1525.23 Q1281.38 1525.97 1278.71 1527.43 L1278.71 1522.02 Q1281.93 1520.78 1284.95 1520.17 Q1287.97 1519.54 1290.84 1519.54 Q1298.57 1519.54 1302.39 1523.55 Q1306.21 1527.56 1306.21 1535.71 Z" fill="#000000" fill-rule="evenodd" fill-opacity="1"></path><path clip-path="url(#clip200)" d="M 0 0 M1312.35 1506.52 L1318.21 1506.52 L1318.21 1556.04 L1312.35 1556.04 L1312.35 1506.52 Z" fill="#000000" fill-rule="evenodd" fill-opacity="1"></path><path clip-path="url(#clip200)" d="M 0 0 M1345.07 1520.4 L1350.93 1520.4 L1350.93 1556.04 L1345.07 1556.04 L1345.07 1520.4 M1345.07 1506.52 L1350.93 1506.52 L1350.93 1513.93 L1345.07 1513.93 L1345.07 1506.52 Z" fill="#000000" fill-rule="evenodd" fill-opacity="1"></path><path clip-path="url(#clip200)" d="M 0 0 M1386.71 1534.53 L1386.71 1556.04 L1380.85 1556.04 L1380.85 1534.72 Q1380.85 1529.66 1378.88 1527.14 Q1376.9 1524.63 1372.96 1524.63 Q1368.21 1524.63 1365.48 1527.65 Q1362.74 1530.68 1362.74 1535.9 L1362.74 1556.04 L1356.85 1556.04 L1356.85 1520.4 L1362.74 1520.4 L1362.74 1525.93 Q1364.84 1522.72 1367.67 1521.13 Q1370.54 1519.54 1374.26 1519.54 Q1380.4 1519.54 1383.55 1523.36 Q1386.71 1527.14 1386.71 1534.53 Z" fill="#000000" fill-rule="evenodd" fill-opacity="1"></path><path clip-path="url(#clip200)" d="M 0 0 M1392.85 1520.4 L1398.7 1520.4 L1398.7 1556.68 Q1398.7 1563.49 1396.09 1566.55 Q1393.52 1569.6 1387.76 1569.6 L1385.53 1569.6 L1385.53 1564.64 L1387.09 1564.64 Q1390.43 1564.64 1391.64 1563.08 Q1392.85 1561.55 1392.85 1556.68 L1392.85 1520.4 M1392.85 1506.52 L1398.7 1506.52 L1398.7 1513.93 L1392.85 1513.93 L1392.85 1506.52 Z" fill="#000000" fill-rule="evenodd" fill-opacity="1"></path><path clip-path="url(#clip200)" d="M 0 0 M1435.34 1536.76 L1435.34 1539.62 L1408.41 1539.62 Q1408.79 1545.67 1412.04 1548.85 Q1415.32 1552 1421.14 1552 Q1424.52 1552 1427.67 1551.17 Q1430.85 1550.35 1433.97 1548.69 L1433.97 1554.23 Q1430.82 1555.57 1427.51 1556.27 Q1424.2 1556.97 1420.79 1556.97 Q1412.26 1556.97 1407.27 1552 Q1402.3 1547.04 1402.3 1538.57 Q1402.3 1529.82 1407.01 1524.69 Q1411.75 1519.54 1419.78 1519.54 Q1426.97 1519.54 1431.14 1524.18 Q1435.34 1528.8 1435.34 1536.76 M1429.48 1535.04 Q1429.42 1530.23 1426.78 1527.37 Q1424.17 1524.5 1419.84 1524.5 Q1414.94 1524.5 1411.98 1527.27 Q1409.05 1530.04 1408.6 1535.07 L1429.48 1535.04 Z" fill="#000000" fill-rule="evenodd" fill-opacity="1"></path><path clip-path="url(#clip200)" d="M 0 0 M1467.14 1521.76 L1467.14 1527.24 Q1464.65 1525.87 1462.14 1525.2 Q1459.66 1524.5 1457.11 1524.5 Q1451.41 1524.5 1448.26 1528.13 Q1445.11 1531.73 1445.11 1538.25 Q1445.11 1544.78 1448.26 1548.4 Q1451.41 1552 1457.11 1552 Q1459.66 1552 1462.14 1551.33 Q1464.65 1550.63 1467.14 1549.26 L1467.14 1554.68 Q1464.69 1555.82 1462.04 1556.39 Q1459.43 1556.97 1456.47 1556.97 Q1448.42 1556.97 1443.68 1551.91 Q1438.94 1546.85 1438.94 1538.25 Q1438.94 1529.53 1443.71 1524.53 Q1448.52 1519.54 1456.86 1519.54 Q1459.56 1519.54 1462.14 1520.11 Q1464.72 1520.65 1467.14 1521.76 Z" fill="#000000" fill-rule="evenodd" fill-opacity="1"></path><path clip-path="url(#clip200)" d="M 0 0 M1479.07 1510.27 L1479.07 1520.4 L1491.13 1520.4 L1491.13 1524.95 L1479.07 1524.95 L1479.07 1544.3 Q1479.07 1548.66 1480.25 1549.9 Q1481.46 1551.14 1485.12 1551.14 L1491.13 1551.14 L1491.13 1556.04 L1485.12 1556.04 Q1478.34 1556.04 1475.76 1553.53 Q1473.18 1550.98 1473.18 1544.3 L1473.18 1524.95 L1468.89 1524.95 L1468.89 1520.4 L1473.18 1520.4 L1473.18 1510.27 L1479.07 1510.27 Z" fill="#000000" fill-rule="evenodd" fill-opacity="1"></path><path clip-path="url(#clip200)" d="M 0 0 M1497.28 1520.4 L1503.13 1520.4 L1503.13 1556.04 L1497.28 1556.04 L1497.28 1520.4 M1497.28 1506.52 L1503.13 1506.52 L1503.13 1513.93 L1497.28 1513.93 L1497.28 1506.52 Z" fill="#000000" fill-rule="evenodd" fill-opacity="1"></path><path clip-path="url(#clip200)" d="M 0 0 M1523.09 1524.5 Q1518.38 1524.5 1515.64 1528.19 Q1512.91 1531.85 1512.91 1538.25 Q1512.91 1544.65 1515.61 1548.34 Q1518.35 1552 1523.09 1552 Q1527.77 1552 1530.51 1548.31 Q1533.24 1544.62 1533.24 1538.25 Q1533.24 1531.92 1530.51 1528.23 Q1527.77 1524.5 1523.09 1524.5 M1523.09 1519.54 Q1530.73 1519.54 1535.09 1524.5 Q1539.45 1529.47 1539.45 1538.25 Q1539.45 1547 1535.09 1552 Q1530.73 1556.97 1523.09 1556.97 Q1515.42 1556.97 1511.06 1552 Q1506.73 1547 1506.73 1538.25 Q1506.73 1529.47 1511.06 1524.5 Q1515.42 1519.54 1523.09 1519.54 Z" fill="#000000" fill-rule="evenodd" fill-opacity="1"></path><path clip-path="url(#clip200)" d="M 0 0 M1575.23 1534.53 L1575.23 1556.04 L1569.37 1556.04 L1569.37 1534.72 Q1569.37 1529.66 1567.4 1527.14 Q1565.42 1524.63 1561.48 1524.63 Q1556.73 1524.63 1554 1527.65 Q1551.26 1530.68 1551.26 1535.9 L1551.26 1556.04 L1545.37 1556.04 L1545.37 1520.4 L1551.26 1520.4 L1551.26 1525.93 Q1553.36 1522.72 1556.19 1521.13 Q1559.06 1519.54 1562.78 1519.54 Q1568.92 1519.54 1572.07 1523.36 Q1575.23 1527.14 1575.23 1534.53 Z" fill="#000000" fill-rule="evenodd" fill-opacity="1"></path><path clip-path="url(#clip200)" d="M 0 0 M1622.75 1525.87 Q1621.76 1525.3 1620.58 1525.04 Q1619.44 1524.76 1618.04 1524.76 Q1613.07 1524.76 1610.4 1528 Q1607.75 1531.22 1607.75 1537.27 L1607.75 1556.04 L1601.87 1556.04 L1601.87 1520.4 L1607.75 1520.4 L1607.75 1525.93 Q1609.6 1522.69 1612.56 1521.13 Q1615.52 1519.54 1619.75 1519.54 Q1620.36 1519.54 1621.09 1519.63 Q1621.82 1519.7 1622.71 1519.85 L1622.75 1525.87 Z" fill="#000000" fill-rule="evenodd" fill-opacity="1"></path><path clip-path="url(#clip200)" d="M 0 0 M1645.09 1538.12 Q1637.99 1538.12 1635.25 1539.75 Q1632.52 1541.37 1632.52 1545.29 Q1632.52 1548.4 1634.55 1550.25 Q1636.62 1552.07 1640.16 1552.07 Q1645.03 1552.07 1647.95 1548.63 Q1650.91 1545.16 1650.91 1539.43 L1650.91 1538.12 L1645.09 1538.12 M1656.77 1535.71 L1656.77 1556.04 L1650.91 1556.04 L1650.91 1550.63 Q1648.91 1553.88 1645.92 1555.44 Q1642.93 1556.97 1638.6 1556.97 Q1633.12 1556.97 1629.88 1553.91 Q1626.66 1550.82 1626.66 1545.67 Q1626.66 1539.65 1630.67 1536.6 Q1634.71 1533.54 1642.7 1533.54 L1650.91 1533.54 L1650.91 1532.97 Q1650.91 1528.93 1648.24 1526.73 Q1645.6 1524.5 1640.79 1524.5 Q1637.74 1524.5 1634.84 1525.23 Q1631.94 1525.97 1629.27 1527.43 L1629.27 1522.02 Q1632.49 1520.78 1635.51 1520.17 Q1638.53 1519.54 1641.4 1519.54 Q1649.13 1519.54 1652.95 1523.55 Q1656.77 1527.56 1656.77 1535.71 Z" fill="#000000" fill-rule="evenodd" fill-opacity="1"></path><path clip-path="url(#clip200)" d="M 0 0 M1668.71 1510.27 L1668.71 1520.4 L1680.77 1520.4 L1680.77 1524.95 L1668.71 1524.95 L1668.71 1544.3 Q1668.71 1548.66 1669.88 1549.9 Q1671.09 1551.14 1674.75 1551.14 L1680.77 1551.14 L1680.77 1556.04 L1674.75 1556.04 Q1667.97 1556.04 1665.4 1553.53 Q1662.82 1550.98 1662.82 1544.3 L1662.82 1524.95 L1658.52 1524.95 L1658.52 1520.4 L1662.82 1520.4 L1662.82 1510.27 L1668.71 1510.27 Z" fill="#000000" fill-rule="evenodd" fill-opacity="1"></path><path clip-path="url(#clip200)" d="M 0 0 M1717.4 1536.76 L1717.4 1539.62 L1690.48 1539.62 Q1690.86 1545.67 1694.11 1548.85 Q1697.38 1552 1703.21 1552 Q1706.58 1552 1709.73 1551.17 Q1712.92 1550.35 1716.04 1548.69 L1716.04 1554.23 Q1712.88 1555.57 1709.57 1556.27 Q1706.26 1556.97 1702.86 1556.97 Q1694.33 1556.97 1689.33 1552 Q1684.37 1547.04 1684.37 1538.57 Q1684.37 1529.82 1689.08 1524.69 Q1693.82 1519.54 1701.84 1519.54 Q1709.03 1519.54 1713.2 1524.18 Q1717.4 1528.8 1717.4 1536.76 M1711.55 1535.04 Q1711.48 1530.23 1708.84 1527.37 Q1706.23 1524.5 1701.9 1524.5 Q1697 1524.5 1694.04 1527.27 Q1691.11 1530.04 1690.67 1535.07 L1711.55 1535.04 Z" fill="#000000" fill-rule="evenodd" fill-opacity="1"></path><polyline clip-path="url(#clip202)" style="stroke:#000000; stroke-width:2; stroke-opacity:0.1; fill:none" points="
  254.542,1221.58 2352.76,1221.58 
  "></polyline>
<polyline clip-path="url(#clip202)" style="stroke:#000000; stroke-width:2; stroke-opacity:0.1; fill:none" points="
  254.542,845.28 2352.76,845.28 
  "></polyline>
<polyline clip-path="url(#clip202)" style="stroke:#000000; stroke-width:2; stroke-opacity:0.1; fill:none" points="
  254.542,468.977 2352.76,468.977 
  "></polyline>
<polyline clip-path="url(#clip202)" style="stroke:#000000; stroke-width:2; stroke-opacity:0.1; fill:none" points="
  254.542,92.6744 2352.76,92.6744 
  "></polyline>
<polyline clip-path="url(#clip200)" style="stroke:#000000; stroke-width:4; stroke-opacity:1; fill:none" points="
  254.542,1423.18 254.542,47.2441 
  "></polyline>
<polyline clip-path="url(#clip200)" style="stroke:#000000; stroke-width:4; stroke-opacity:1; fill:none" points="
  254.542,1221.58 279.721,1221.58 
  "></polyline>
<polyline clip-path="url(#clip200)" style="stroke:#000000; stroke-width:4; stroke-opacity:1; fill:none" points="
  254.542,845.28 279.721,845.28 
  "></polyline>
<polyline clip-path="url(#clip200)" style="stroke:#000000; stroke-width:4; stroke-opacity:1; fill:none" points="
  254.542,468.977 279.721,468.977 
  "></polyline>
<polyline clip-path="url(#clip200)" style="stroke:#000000; stroke-width:4; stroke-opacity:1; fill:none" points="
  254.542,92.6744 279.721,92.6744 
  "></polyline>
<path clip-path="url(#clip200)" d="M 0 0 M121.274 1234.93 L137.593 1234.93 L137.593 1238.86 L115.649 1238.86 L115.649 1234.93 Q118.311 1232.17 122.894 1227.54 Q127.501 1222.89 128.681 1221.55 Q130.927 1219.02 131.806 1217.29 Q132.709 1215.53 132.709 1213.84 Q132.709 1211.09 130.765 1209.35 Q128.843 1207.61 125.742 1207.61 Q123.543 1207.61 121.089 1208.38 Q118.658 1209.14 115.881 1210.69 L115.881 1205.97 Q118.705 1204.84 121.158 1204.26 Q123.612 1203.68 125.649 1203.68 Q131.019 1203.68 134.214 1206.36 Q137.408 1209.05 137.408 1213.54 Q137.408 1215.67 136.598 1217.59 Q135.811 1219.49 133.704 1222.08 Q133.126 1222.75 130.024 1225.97 Q126.922 1229.16 121.274 1234.93 Z" fill="#000000" fill-rule="evenodd" fill-opacity="1"></path><path clip-path="url(#clip200)" d="M 0 0 M152.663 1222.45 Q149.329 1222.45 147.408 1224.23 Q145.51 1226.02 145.51 1229.14 Q145.51 1232.27 147.408 1234.05 Q149.329 1235.83 152.663 1235.83 Q155.996 1235.83 157.917 1234.05 Q159.839 1232.24 159.839 1229.14 Q159.839 1226.02 157.917 1224.23 Q156.019 1222.45 152.663 1222.45 M147.987 1220.46 Q144.978 1219.72 143.288 1217.66 Q141.621 1215.6 141.621 1212.64 Q141.621 1208.49 144.561 1206.09 Q147.524 1203.68 152.663 1203.68 Q157.825 1203.68 160.765 1206.09 Q163.704 1208.49 163.704 1212.64 Q163.704 1215.6 162.015 1217.66 Q160.348 1219.72 157.362 1220.46 Q160.741 1221.25 162.616 1223.54 Q164.515 1225.83 164.515 1229.14 Q164.515 1234.16 161.436 1236.85 Q158.38 1239.53 152.663 1239.53 Q146.945 1239.53 143.866 1236.85 Q140.811 1234.16 140.811 1229.14 Q140.811 1225.83 142.709 1223.54 Q144.607 1221.25 147.987 1220.46 M146.274 1213.08 Q146.274 1215.76 147.941 1217.27 Q149.63 1218.77 152.663 1218.77 Q155.672 1218.77 157.362 1217.27 Q159.075 1215.76 159.075 1213.08 Q159.075 1210.39 157.362 1208.89 Q155.672 1207.38 152.663 1207.38 Q149.63 1207.38 147.941 1208.89 Q146.274 1210.39 146.274 1213.08 Z" fill="#000000" fill-rule="evenodd" fill-opacity="1"></path><path clip-path="url(#clip200)" d="M 0 0 M179.584 1207.38 Q175.973 1207.38 174.144 1210.95 Q172.339 1214.49 172.339 1221.62 Q172.339 1228.72 174.144 1232.29 Q175.973 1235.83 179.584 1235.83 Q183.218 1235.83 185.024 1232.29 Q186.852 1228.72 186.852 1221.62 Q186.852 1214.49 185.024 1210.95 Q183.218 1207.38 179.584 1207.38 M179.584 1203.68 Q185.394 1203.68 188.45 1208.28 Q191.528 1212.87 191.528 1221.62 Q191.528 1230.34 188.45 1234.95 Q185.394 1239.53 179.584 1239.53 Q173.774 1239.53 170.695 1234.95 Q167.64 1230.34 167.64 1221.62 Q167.64 1212.87 170.695 1208.28 Q173.774 1203.68 179.584 1203.68 Z" fill="#000000" fill-rule="evenodd" fill-opacity="1"></path><path clip-path="url(#clip200)" d="M 0 0 M206.598 1207.38 Q202.987 1207.38 201.158 1210.95 Q199.352 1214.49 199.352 1221.62 Q199.352 1228.72 201.158 1232.29 Q202.987 1235.83 206.598 1235.83 Q210.232 1235.83 212.037 1232.29 Q213.866 1228.72 213.866 1221.62 Q213.866 1214.49 212.037 1210.95 Q210.232 1207.38 206.598 1207.38 M206.598 1203.68 Q212.408 1203.68 215.463 1208.28 Q218.542 1212.87 218.542 1221.62 Q218.542 1230.34 215.463 1234.95 Q212.408 1239.53 206.598 1239.53 Q200.787 1239.53 197.709 1234.95 Q194.653 1230.34 194.653 1221.62 Q194.653 1212.87 197.709 1208.28 Q200.787 1203.68 206.598 1203.68 Z" fill="#000000" fill-rule="evenodd" fill-opacity="1"></path><path clip-path="url(#clip200)" d="M 0 0 M130.371 843.926 Q133.728 844.643 135.603 846.912 Q137.501 849.18 137.501 852.514 Q137.501 857.629 133.982 860.43 Q130.464 863.231 123.982 863.231 Q121.806 863.231 119.492 862.791 Q117.2 862.375 114.746 861.518 L114.746 857.004 Q116.691 858.139 119.006 858.717 Q121.32 859.296 123.843 859.296 Q128.242 859.296 130.533 857.56 Q132.848 855.824 132.848 852.514 Q132.848 849.458 130.695 847.745 Q128.566 846.009 124.746 846.009 L120.718 846.009 L120.718 842.167 L124.931 842.167 Q128.38 842.167 130.209 840.801 Q132.038 839.412 132.038 836.819 Q132.038 834.157 130.14 832.745 Q128.265 831.31 124.746 831.31 Q122.825 831.31 120.626 831.727 Q118.427 832.143 115.788 833.023 L115.788 828.856 Q118.45 828.116 120.765 827.745 Q123.103 827.375 125.163 827.375 Q130.487 827.375 133.589 829.806 Q136.691 832.213 136.691 836.333 Q136.691 839.204 135.047 841.194 Q133.404 843.162 130.371 843.926 Z" fill="#000000" fill-rule="evenodd" fill-opacity="1"></path><path clip-path="url(#clip200)" d="M 0 0 M152.57 831.079 Q148.959 831.079 147.13 834.643 Q145.325 838.185 145.325 845.315 Q145.325 852.421 147.13 855.986 Q148.959 859.528 152.57 859.528 Q156.204 859.528 158.01 855.986 Q159.839 852.421 159.839 845.315 Q159.839 838.185 158.01 834.643 Q156.204 831.079 152.57 831.079 M152.57 827.375 Q158.38 827.375 161.436 831.981 Q164.515 836.565 164.515 845.315 Q164.515 854.041 161.436 858.648 Q158.38 863.231 152.57 863.231 Q146.76 863.231 143.681 858.648 Q140.626 854.041 140.626 845.315 Q140.626 836.565 143.681 831.981 Q146.76 827.375 152.57 827.375 Z" fill="#000000" fill-rule="evenodd" fill-opacity="1"></path><path clip-path="url(#clip200)" d="M 0 0 M179.584 831.079 Q175.973 831.079 174.144 834.643 Q172.339 838.185 172.339 845.315 Q172.339 852.421 174.144 855.986 Q175.973 859.528 179.584 859.528 Q183.218 859.528 185.024 855.986 Q186.852 852.421 186.852 845.315 Q186.852 838.185 185.024 834.643 Q183.218 831.079 179.584 831.079 M179.584 827.375 Q185.394 827.375 188.45 831.981 Q191.528 836.565 191.528 845.315 Q191.528 854.041 188.45 858.648 Q185.394 863.231 179.584 863.231 Q173.774 863.231 170.695 858.648 Q167.64 854.041 167.64 845.315 Q167.64 836.565 170.695 831.981 Q173.774 827.375 179.584 827.375 Z" fill="#000000" fill-rule="evenodd" fill-opacity="1"></path><path clip-path="url(#clip200)" d="M 0 0 M206.598 831.079 Q202.987 831.079 201.158 834.643 Q199.352 838.185 199.352 845.315 Q199.352 852.421 201.158 855.986 Q202.987 859.528 206.598 859.528 Q210.232 859.528 212.037 855.986 Q213.866 852.421 213.866 845.315 Q213.866 838.185 212.037 834.643 Q210.232 831.079 206.598 831.079 M206.598 827.375 Q212.408 827.375 215.463 831.981 Q218.542 836.565 218.542 845.315 Q218.542 854.041 215.463 858.648 Q212.408 863.231 206.598 863.231 Q200.787 863.231 197.709 858.648 Q194.653 854.041 194.653 845.315 Q194.653 836.565 197.709 831.981 Q200.787 827.375 206.598 827.375 Z" fill="#000000" fill-rule="evenodd" fill-opacity="1"></path><path clip-path="url(#clip200)" d="M 0 0 M131.968 467.623 Q135.325 468.341 137.2 470.609 Q139.098 472.878 139.098 476.211 Q139.098 481.327 135.579 484.128 Q132.061 486.928 125.58 486.928 Q123.404 486.928 121.089 486.489 Q118.797 486.072 116.343 485.216 L116.343 480.702 Q118.288 481.836 120.603 482.415 Q122.918 482.993 125.441 482.993 Q129.839 482.993 132.13 481.257 Q134.445 479.521 134.445 476.211 Q134.445 473.155 132.292 471.442 Q130.163 469.706 126.343 469.706 L122.316 469.706 L122.316 465.864 L126.529 465.864 Q129.978 465.864 131.806 464.498 Q133.635 463.109 133.635 460.517 Q133.635 457.855 131.737 456.443 Q129.862 455.007 126.343 455.007 Q124.422 455.007 122.223 455.424 Q120.024 455.841 117.385 456.72 L117.385 452.554 Q120.047 451.813 122.362 451.443 Q124.7 451.072 126.76 451.072 Q132.084 451.072 135.186 453.503 Q138.288 455.91 138.288 460.03 Q138.288 462.901 136.644 464.892 Q135.001 466.859 131.968 467.623 Z" fill="#000000" fill-rule="evenodd" fill-opacity="1"></path><path clip-path="url(#clip200)" d="M 0 0 M148.195 482.322 L164.515 482.322 L164.515 486.257 L142.57 486.257 L142.57 482.322 Q145.232 479.567 149.816 474.938 Q154.422 470.285 155.603 468.942 Q157.848 466.419 158.728 464.683 Q159.63 462.924 159.63 461.234 Q159.63 458.48 157.686 456.743 Q155.765 455.007 152.663 455.007 Q150.464 455.007 148.01 455.771 Q145.579 456.535 142.802 458.086 L142.802 453.364 Q145.626 452.23 148.079 451.651 Q150.533 451.072 152.57 451.072 Q157.94 451.072 161.135 453.757 Q164.329 456.443 164.329 460.933 Q164.329 463.063 163.519 464.984 Q162.732 466.882 160.626 469.475 Q160.047 470.146 156.945 473.364 Q153.843 476.558 148.195 482.322 Z" fill="#000000" fill-rule="evenodd" fill-opacity="1"></path><path clip-path="url(#clip200)" d="M 0 0 M179.584 454.776 Q175.973 454.776 174.144 458.341 Q172.339 461.882 172.339 469.012 Q172.339 476.118 174.144 479.683 Q175.973 483.225 179.584 483.225 Q183.218 483.225 185.024 479.683 Q186.852 476.118 186.852 469.012 Q186.852 461.882 185.024 458.341 Q183.218 454.776 179.584 454.776 M179.584 451.072 Q185.394 451.072 188.45 455.679 Q191.528 460.262 191.528 469.012 Q191.528 477.739 188.45 482.345 Q185.394 486.928 179.584 486.928 Q173.774 486.928 170.695 482.345 Q167.64 477.739 167.64 469.012 Q167.64 460.262 170.695 455.679 Q173.774 451.072 179.584 451.072 Z" fill="#000000" fill-rule="evenodd" fill-opacity="1"></path><path clip-path="url(#clip200)" d="M 0 0 M206.598 454.776 Q202.987 454.776 201.158 458.341 Q199.352 461.882 199.352 469.012 Q199.352 476.118 201.158 479.683 Q202.987 483.225 206.598 483.225 Q210.232 483.225 212.037 479.683 Q213.866 476.118 213.866 469.012 Q213.866 461.882 212.037 458.341 Q210.232 454.776 206.598 454.776 M206.598 451.072 Q212.408 451.072 215.463 455.679 Q218.542 460.262 218.542 469.012 Q218.542 477.739 215.463 482.345 Q212.408 486.928 206.598 486.928 Q200.787 486.928 197.709 482.345 Q194.653 477.739 194.653 469.012 Q194.653 460.262 197.709 455.679 Q200.787 451.072 206.598 451.072 Z" fill="#000000" fill-rule="evenodd" fill-opacity="1"></path><path clip-path="url(#clip200)" d="M 0 0 M129.885 91.3202 Q133.242 92.0378 135.117 94.3063 Q137.015 96.5749 137.015 99.9082 Q137.015 105.024 133.496 107.825 Q129.978 110.626 123.496 110.626 Q121.32 110.626 119.006 110.186 Q116.714 109.769 114.26 108.913 L114.26 104.399 Q116.205 105.533 118.519 106.112 Q120.834 106.691 123.357 106.691 Q127.755 106.691 130.047 104.954 Q132.362 103.218 132.362 99.9082 Q132.362 96.8526 130.209 95.1397 Q128.08 93.4036 124.26 93.4036 L120.232 93.4036 L120.232 89.561 L124.445 89.561 Q127.894 89.561 129.723 88.1953 Q131.552 86.8064 131.552 84.2138 Q131.552 81.5518 129.654 80.1398 Q127.779 78.7046 124.26 78.7046 Q122.339 78.7046 120.14 79.1212 Q117.941 79.5379 115.302 80.4175 L115.302 76.2509 Q117.964 75.5101 120.279 75.1398 Q122.617 74.7694 124.677 74.7694 Q130.001 74.7694 133.103 77.2 Q136.204 79.6073 136.204 83.7277 Q136.204 86.5981 134.561 88.5888 Q132.917 90.5564 129.885 91.3202 Z" fill="#000000" fill-rule="evenodd" fill-opacity="1"></path><path clip-path="url(#clip200)" d="M 0 0 M154.931 79.4685 L143.126 97.9174 L154.931 97.9174 L154.931 79.4685 M153.704 75.3944 L159.584 75.3944 L159.584 97.9174 L164.515 97.9174 L164.515 101.806 L159.584 101.806 L159.584 109.954 L154.931 109.954 L154.931 101.806 L139.329 101.806 L139.329 97.2924 L153.704 75.3944 Z" fill="#000000" fill-rule="evenodd" fill-opacity="1"></path><path clip-path="url(#clip200)" d="M 0 0 M179.584 78.4731 Q175.973 78.4731 174.144 82.0379 Q172.339 85.5795 172.339 92.7091 Q172.339 99.8156 174.144 103.38 Q175.973 106.922 179.584 106.922 Q183.218 106.922 185.024 103.38 Q186.852 99.8156 186.852 92.7091 Q186.852 85.5795 185.024 82.0379 Q183.218 78.4731 179.584 78.4731 M179.584 74.7694 Q185.394 74.7694 188.45 79.3759 Q191.528 83.9592 191.528 92.7091 Q191.528 101.436 188.45 106.042 Q185.394 110.626 179.584 110.626 Q173.774 110.626 170.695 106.042 Q167.64 101.436 167.64 92.7091 Q167.64 83.9592 170.695 79.3759 Q173.774 74.7694 179.584 74.7694 Z" fill="#000000" fill-rule="evenodd" fill-opacity="1"></path><path clip-path="url(#clip200)" d="M 0 0 M206.598 78.4731 Q202.987 78.4731 201.158 82.0379 Q199.352 85.5795 199.352 92.7091 Q199.352 99.8156 201.158 103.38 Q202.987 106.922 206.598 106.922 Q210.232 106.922 212.037 103.38 Q213.866 99.8156 213.866 92.7091 Q213.866 85.5795 212.037 82.0379 Q210.232 78.4731 206.598 78.4731 M206.598 74.7694 Q212.408 74.7694 215.463 79.3759 Q218.542 83.9592 218.542 92.7091 Q218.542 101.436 215.463 106.042 Q212.408 110.626 206.598 110.626 Q200.787 110.626 197.709 106.042 Q194.653 101.436 194.653 92.7091 Q194.653 83.9592 197.709 79.3759 Q200.787 74.7694 206.598 74.7694 Z" fill="#000000" fill-rule="evenodd" fill-opacity="1"></path><path clip-path="url(#clip200)" d="M 0 0 M44.8447 818.269 Q44.8447 825.271 50.0645 829.409 Q55.2844 833.514 64.2919 833.514 Q73.2675 833.514 78.4874 829.409 Q83.7073 825.271 83.7073 818.269 Q83.7073 811.266 78.4874 807.192 Q73.2675 803.086 64.2919 803.086 Q55.2844 803.086 50.0645 807.192 Q44.8447 811.266 44.8447 818.269 M39.6248 818.269 Q39.6248 808.274 46.3406 802.291 Q53.0246 796.307 64.2919 796.307 Q75.5274 796.307 82.2432 802.291 Q88.9272 808.274 88.9272 818.269 Q88.9272 828.295 82.2432 834.31 Q75.5592 840.294 64.2919 840.294 Q53.0246 840.294 46.3406 834.31 Q39.6248 828.295 39.6248 818.269 Z" fill="#000000" fill-rule="evenodd" fill-opacity="1"></path><path clip-path="url(#clip200)" d="M 0 0 M52.3562 790.164 L52.3562 784.307 L88.0042 784.307 L88.0042 790.164 L52.3562 790.164 M38.479 790.164 L38.479 784.307 L45.895 784.307 L45.895 790.164 L38.479 790.164 Z" fill="#000000" fill-rule="evenodd" fill-opacity="1"></path><path clip-path="url(#clip200)" d="M 0 0 M38.479 778.165 L38.479 772.308 L88.0042 772.308 L88.0042 778.165 L38.479 778.165 Z" fill="#000000" fill-rule="evenodd" fill-opacity="1"></path><path clip-path="url(#clip200)" d="M 0 0 M57.8307 724.788 Q57.2578 725.775 57.0032 726.952 Q56.7167 728.098 56.7167 729.499 Q56.7167 734.464 59.9632 737.138 Q63.1779 739.779 69.2253 739.779 L88.0042 739.779 L88.0042 745.668 L52.3562 745.668 L52.3562 739.779 L57.8944 739.779 Q54.6479 737.933 53.0883 734.973 Q51.4968 732.013 51.4968 727.78 Q51.4968 727.175 51.5923 726.443 Q51.656 725.711 51.8151 724.82 L57.8307 724.788 Z" fill="#000000" fill-rule="evenodd" fill-opacity="1"></path><path clip-path="url(#clip200)" d="M 0 0 M70.0847 702.444 Q70.0847 709.542 71.7079 712.28 Q73.3312 715.017 77.2461 715.017 Q80.3653 715.017 82.2114 712.98 Q84.0256 710.911 84.0256 707.378 Q84.0256 702.508 80.5881 699.58 Q77.1188 696.62 71.3897 696.62 L70.0847 696.62 L70.0847 702.444 M67.6657 690.763 L88.0042 690.763 L88.0042 696.62 L82.5933 696.62 Q85.8398 698.625 87.3994 701.617 Q88.9272 704.609 88.9272 708.938 Q88.9272 714.412 85.8716 717.659 Q82.7843 720.873 77.6281 720.873 Q71.6125 720.873 68.5569 716.863 Q65.5014 712.821 65.5014 704.832 L65.5014 696.62 L64.9285 696.62 Q60.8862 696.62 58.6901 699.293 Q56.4621 701.935 56.4621 706.741 Q56.4621 709.797 57.1941 712.693 Q57.9262 715.59 59.3903 718.263 L53.9795 718.263 Q52.7381 715.049 52.1334 712.025 Q51.4968 709.001 51.4968 706.137 Q51.4968 698.402 55.5072 694.583 Q59.5176 690.763 67.6657 690.763 Z" fill="#000000" fill-rule="evenodd" fill-opacity="1"></path><path clip-path="url(#clip200)" d="M 0 0 M42.2347 678.828 L52.3562 678.828 L52.3562 666.765 L56.9077 666.765 L56.9077 678.828 L76.2594 678.828 Q80.6199 678.828 81.8613 677.65 Q83.1026 676.441 83.1026 672.78 L83.1026 666.765 L88.0042 666.765 L88.0042 672.78 Q88.0042 679.56 85.4897 682.138 Q82.9434 684.716 76.2594 684.716 L56.9077 684.716 L56.9077 689.013 L52.3562 689.013 L52.3562 684.716 L42.2347 684.716 L42.2347 678.828 Z" fill="#000000" fill-rule="evenodd" fill-opacity="1"></path><path clip-path="url(#clip200)" d="M 0 0 M68.7161 630.13 L71.5806 630.13 L71.5806 657.057 Q77.6281 656.675 80.8109 653.429 Q83.9619 650.15 83.9619 644.326 Q83.9619 640.952 83.1344 637.801 Q82.3069 634.618 80.6518 631.499 L86.1899 631.499 Q87.5267 634.65 88.227 637.96 Q88.9272 641.27 88.9272 644.676 Q88.9272 653.206 83.9619 658.203 Q78.9967 663.168 70.5303 663.168 Q61.7774 663.168 56.6531 658.457 Q51.4968 653.715 51.4968 645.694 Q51.4968 638.501 56.1438 634.331 Q60.7589 630.13 68.7161 630.13 M66.9973 635.987 Q62.1912 636.05 59.3266 638.692 Q56.4621 641.302 56.4621 645.631 Q56.4621 650.532 59.2312 653.492 Q62.0002 656.42 67.0292 656.866 L66.9973 635.987 Z" fill="#000000" fill-rule="evenodd" fill-opacity="1"></path><polyline clip-path="url(#clip202)" style="stroke:#009af9; stroke-width:4; stroke-opacity:1; fill:none" points="
  313.925,1384.24 315.163,1383.28 316.4,1382.33 317.637,1381.38 318.874,1380.42 320.111,1379.47 321.348,1378.51 322.585,1377.56 323.823,1376.6 325.06,1375.65 
  326.297,1374.69 327.534,1373.74 328.771,1372.79 330.008,1371.83 331.246,1370.88 332.483,1369.92 333.72,1368.97 334.957,1368.01 336.194,1367.06 337.431,1366.1 
  338.669,1365.15 339.906,1364.2 341.143,1363.24 342.38,1362.29 343.617,1361.33 344.854,1360.38 346.091,1359.42 347.329,1358.47 348.566,1357.52 349.803,1356.56 
  351.04,1355.61 352.277,1354.65 353.514,1353.7 354.752,1352.74 355.989,1351.79 357.226,1350.83 358.463,1349.88 359.7,1348.93 360.937,1347.97 362.174,1347.02 
  363.412,1346.06 364.649,1345.11 365.886,1344.15 367.123,1343.2 368.36,1342.25 369.597,1341.29 370.835,1340.34 372.072,1339.38 373.309,1338.43 374.546,1337.47 
  375.783,1336.52 377.02,997.683 378.257,996.525 379.495,995.367 380.732,994.209 381.969,993.051 383.206,991.893 384.443,990.735 385.68,989.578 386.918,988.42 
  388.155,987.262 389.392,986.104 390.629,984.946 391.866,983.788 393.103,982.63 394.34,981.473 395.578,980.315 396.815,979.157 398.052,977.999 399.289,976.841 
  400.526,975.683 401.763,974.526 403.001,973.368 404.238,972.21 405.475,971.052 406.712,969.894 407.949,968.736 409.186,967.578 410.423,966.421 411.661,965.263 
  412.898,964.105 414.135,962.947 415.372,961.789 416.609,960.631 417.846,959.473 419.084,958.316 420.321,957.158 421.558,956 422.795,954.842 424.032,953.684 
  425.269,952.526 426.506,951.572 427.744,950.617 428.981,949.663 430.218,948.709 431.455,947.754 432.692,946.8 433.929,945.846 435.167,944.891 436.404,943.937 
  437.641,942.982 438.878,942.028 440.115,941.074 441.352,940.119 442.589,939.165 443.827,938.21 445.064,937.256 446.301,936.302 447.538,935.347 448.775,934.393 
  450.012,933.438 451.25,932.484 452.487,931.53 453.724,930.575 454.961,929.621 456.198,928.666 457.435,927.712 458.672,926.758 459.91,925.803 461.147,924.849 
  462.384,923.895 463.621,922.94 464.858,921.986 466.095,921.031 467.333,920.077 468.57,919.123 469.807,918.168 471.044,917.214 472.281,916.259 473.518,915.305 
  474.755,914.351 475.993,913.396 477.23,912.442 478.467,911.487 479.704,910.533 480.941,909.579 482.178,908.624 483.416,907.67 484.653,906.715 485.89,905.761 
  487.127,904.807 488.364,903.852 489.601,902.898 490.839,901.944 492.076,900.989 493.313,900.035 494.55,899.08 495.787,898.126 497.024,897.172 498.261,896.217 
  499.499,895.263 500.736,894.308 501.973,893.354 503.21,892.4 504.447,891.445 505.684,890.491 506.922,889.536 508.159,888.582 509.396,887.628 510.633,886.673 
  511.87,885.931 513.107,885.188 514.344,884.445 515.582,883.702 516.819,882.96 518.056,882.217 519.293,881.474 520.53,880.732 521.767,879.989 523.005,879.246 
  524.242,878.504 525.479,877.761 526.716,877.018 527.953,876.275 529.19,875.533 530.427,874.79 531.665,874.047 532.902,873.305 534.139,872.562 535.376,871.819 
  536.613,871.077 537.85,870.334 539.088,869.591 540.325,868.848 541.562,868.106 542.799,867.363 544.036,866.62 545.273,865.878 546.51,865.135 547.748,864.392 
  548.985,863.649 550.222,862.907 551.459,862.164 552.696,861.421 553.933,860.679 555.171,859.936 556.408,859.193 557.645,858.451 558.882,857.708 560.119,856.965 
  561.356,856.222 562.593,855.48 563.831,854.737 565.068,853.994 566.305,853.252 567.542,852.509 568.779,851.766 570.016,851.024 571.254,850.281 572.491,849.538 
  573.728,848.795 574.965,848.053 576.202,847.31 577.439,846.567 578.676,845.825 579.914,845.082 581.151,844.339 582.388,843.597 583.625,842.854 584.862,842.111 
  586.099,841.368 587.337,840.626 588.574,839.883 589.811,839.14 591.048,838.398 592.285,837.655 593.522,836.912 594.759,836.169 595.997,835.427 597.234,834.684 
  598.471,833.827 599.708,832.873 600.945,831.918 602.182,830.964 603.42,830.01 604.657,829.055 605.894,828.101 607.131,827.147 608.368,826.192 609.605,825.238 
  610.842,824.283 612.08,823.329 613.317,822.375 614.554,821.42 615.791,820.466 617.028,819.511 618.265,818.557 619.503,817.603 620.74,816.648 621.977,815.694 
  623.214,814.739 624.451,813.785 625.688,812.831 626.925,811.876 628.163,810.922 629.4,809.967 630.637,809.013 631.874,808.059 633.111,807.104 634.348,806.15 
  635.586,805.196 636.823,804.241 638.06,803.287 639.297,802.332 640.534,801.378 641.771,800.424 643.008,799.469 644.246,798.515 645.483,797.56 646.72,796.606 
  647.957,795.652 649.194,794.697 650.431,793.743 651.669,792.788 652.906,791.834 654.143,790.88 655.38,452.044 656.617,450.886 657.854,449.728 659.092,448.57 
  660.329,447.412 661.566,446.254 662.803,445.096 664.04,443.939 665.277,442.781 666.514,441.623 667.752,440.465 668.989,439.307 670.226,438.149 671.463,436.991 
  672.7,435.834 673.937,434.676 675.175,433.518 676.412,432.36 677.649,431.202 678.886,430.044 680.123,428.886 681.36,427.729 682.597,426.571 683.835,425.413 
  685.072,424.255 686.309,423.097 687.546,421.939 688.783,420.781 690.02,419.624 691.258,418.466 692.495,417.308 693.732,416.15 694.969,414.992 696.206,413.834 
  697.443,412.677 698.68,411.519 699.918,410.361 701.155,409.203 702.392,408.045 703.629,406.887 704.866,405.933 706.103,404.978 707.341,404.024 708.578,403.07 
  709.815,402.115 711.052,401.161 712.289,400.206 713.526,399.252 714.763,398.298 716.001,397.343 717.238,396.389 718.475,395.435 719.712,394.48 720.949,393.526 
  722.186,392.571 723.424,391.617 724.661,390.663 725.898,389.708 727.135,388.754 728.372,387.799 729.609,386.845 730.846,385.891 732.084,384.936 733.321,383.982 
  734.558,383.027 735.795,382.073 737.032,381.119 738.269,380.164 739.507,379.21 740.744,378.255 741.981,377.301 743.218,376.347 744.455,375.392 745.692,374.438 
  746.929,373.484 748.167,372.529 749.404,371.575 750.641,370.62 751.878,369.666 753.115,368.712 754.352,367.757 755.59,366.803 756.827,365.848 758.064,364.894 
  759.301,363.94 760.538,362.985 761.775,362.031 763.012,361.076 764.25,360.122 765.487,359.168 766.724,358.213 767.961,357.259 769.198,356.305 770.435,355.35 
  771.673,354.396 772.91,353.441 774.147,352.487 775.384,351.533 776.621,350.578 777.858,349.624 779.095,348.669 780.333,347.715 781.57,346.761 782.807,345.806 
  784.044,344.852 785.281,343.897 786.518,342.943 787.756,341.989 788.993,341.034 790.23,340.292 791.467,339.549 792.704,338.806 793.941,338.063 795.178,337.321 
  796.416,336.578 797.653,335.835 798.89,335.093 800.127,334.35 801.364,333.607 802.601,332.865 803.839,332.122 805.076,331.379 806.313,330.636 807.55,329.894 
  808.787,329.151 810.024,328.408 811.261,327.666 812.499,326.923 813.736,326.18 814.973,325.437 816.21,324.695 817.447,323.952 818.684,323.209 819.922,322.467 
  821.159,321.724 822.396,320.981 823.633,320.239 824.87,319.496 826.107,318.753 827.345,318.01 828.582,317.268 829.819,316.525 831.056,315.782 832.293,315.04 
  833.53,314.297 834.767,313.554 836.005,312.812 837.242,312.069 838.479,311.326 839.716,310.583 840.953,309.841 842.19,309.098 843.428,308.355 844.665,307.613 
  845.902,306.87 847.139,306.127 848.376,305.385 849.613,304.642 850.85,303.899 852.088,303.156 853.325,302.414 854.562,301.671 855.799,300.928 857.036,300.186 
  858.273,299.443 859.511,298.7 860.748,297.957 861.985,297.215 863.222,296.472 864.459,295.729 865.696,294.987 866.933,294.244 868.171,293.501 869.408,292.759 
  870.645,292.016 871.882,291.273 873.119,290.53 874.356,289.788 875.594,289.045 876.831,288.302 878.068,287.56 879.305,286.817 880.542,286.074 881.779,285.332 
  883.016,284.589 884.254,283.87 885.491,283.151 886.728,282.432 887.965,281.714 889.202,280.995 890.439,280.276 891.677,279.557 892.914,278.839 894.151,278.12 
  895.388,277.401 896.625,276.682 897.862,275.963 899.099,275.245 900.337,274.526 901.574,273.807 902.811,273.088 904.048,272.37 905.285,271.651 906.522,270.932 
  907.76,270.213 908.997,269.494 910.234,268.776 911.471,268.057 912.708,267.338 913.945,266.619 915.182,265.901 916.42,265.182 917.657,264.463 918.894,263.744 
  920.131,263.025 921.368,262.307 922.605,261.588 923.843,260.869 925.08,260.15 926.317,259.432 927.554,258.713 928.791,257.994 930.028,257.275 931.265,256.556 
  932.503,255.838 933.74,255.119 934.977,254.4 936.214,253.681 937.451,252.962 938.688,252.244 939.926,251.525 941.163,250.806 942.4,250.087 943.637,249.369 
  944.874,248.65 946.111,247.931 947.348,247.212 948.586,246.493 949.823,245.775 951.06,245.056 952.297,244.337 953.534,243.618 954.771,242.9 956.009,242.181 
  957.246,241.462 958.483,240.743 959.72,240.024 960.957,239.306 962.194,238.587 963.431,237.868 964.669,237.149 965.906,236.431 967.143,235.712 968.38,234.993 
  969.617,234.274 970.854,233.555 972.092,232.837 973.329,232.118 974.566,231.399 975.803,230.68 977.04,229.962 978.277,229.243 979.514,228.524 980.752,227.805 
  981.989,227.086 983.226,226.368 984.463,225.649 985.7,224.93 986.937,224.211 988.175,223.492 989.412,222.774 990.649,222.055 991.886,221.336 993.123,220.617 
  994.36,220.037 995.598,219.456 996.835,218.875 998.072,218.294 999.309,217.714 1000.55,217.133 1001.78,216.552 1003.02,215.972 1004.26,215.391 1005.49,214.81 
  1006.73,214.229 1007.97,213.649 1009.21,213.068 1010.44,212.487 1011.68,211.907 1012.92,211.326 1014.15,210.745 1015.39,210.164 1016.63,209.584 1017.87,209.003 
  1019.1,208.422 1020.34,207.842 1021.58,207.261 1022.81,206.68 1024.05,206.1 1025.29,205.519 1026.53,204.938 1027.76,204.357 1029,203.777 1030.24,203.196 
  1031.47,202.615 1032.71,202.035 1033.95,201.454 1035.19,200.873 1036.42,200.292 1037.66,199.712 1038.9,199.131 1040.14,198.55 1041.37,197.97 1042.61,197.389 
  1043.85,196.808 1045.08,196.227 1046.32,195.647 1047.56,195.066 1048.8,194.485 1050.03,193.905 1051.27,193.324 1052.51,192.743 1053.74,192.162 1054.98,191.582 
  1056.22,191.001 1057.46,190.42 1058.69,189.84 1059.93,189.259 1061.17,188.678 1062.4,188.097 1063.64,187.517 1064.88,186.936 1066.12,186.355 1067.35,185.775 
  1068.59,185.194 1069.83,184.613 1071.06,184.032 1072.3,183.452 1073.54,182.871 1074.78,182.29 1076.01,181.71 1077.25,181.129 1078.49,180.548 1079.72,179.967 
  1080.96,179.387 1082.2,178.806 1083.44,178.225 1084.67,177.645 1085.91,177.064 1087.15,176.483 1088.38,175.902 1089.62,175.322 1090.86,174.741 1092.1,174.16 
  1093.33,173.58 1094.57,173.101 1095.81,172.623 1097.04,172.145 1098.28,171.667 1099.52,171.189 1100.76,170.711 1101.99,170.233 1103.23,169.755 1104.47,169.277 
  1105.7,168.799 1106.94,168.321 1108.18,167.842 1109.42,167.364 1110.65,166.886 1111.89,166.408 1113.13,165.93 1114.36,165.452 1115.6,164.974 1116.84,164.496 
  1118.08,164.018 1119.31,163.54 1120.55,163.062 1121.79,162.583 1123.02,162.105 1124.26,161.627 1125.5,161.149 1126.74,160.671 1127.97,160.193 1129.21,159.715 
  1130.45,159.237 1131.68,158.759 1132.92,158.281 1134.16,157.803 1135.4,157.324 1136.63,156.846 1137.87,156.368 1139.11,155.89 1140.34,155.412 1141.58,154.934 
  1142.82,154.456 1144.06,153.978 1145.29,153.5 1146.53,153.022 1147.77,152.544 1149,152.065 1150.24,151.587 1151.48,151.109 1152.72,150.631 1153.95,150.153 
  1155.19,149.675 1156.43,149.197 1157.66,148.719 1158.9,148.241 1160.14,147.763 1161.38,147.285 1162.61,146.806 1163.85,146.328 1165.09,145.85 1166.32,145.372 
  1167.56,144.894 1168.8,144.416 1170.04,143.938 1171.27,143.46 1172.51,142.982 1173.75,142.504 1174.98,142.026 1176.22,141.548 1177.46,141.069 1178.7,140.591 
  1179.93,140.113 1181.17,139.635 1182.41,139.157 1183.64,138.679 1184.88,138.201 1186.12,137.723 1187.36,137.245 1188.59,136.767 1189.83,136.289 1191.07,135.81 
  1192.31,135.332 1193.54,134.854 1194.78,134.376 1196.02,133.898 1197.25,133.42 1198.49,132.942 1199.73,132.464 1200.97,131.986 1202.2,131.508 1203.44,131.03 
  1204.68,130.551 1205.91,130.073 1207.15,129.595 1208.39,129.117 1209.63,128.639 1210.86,128.161 1212.1,127.683 1213.34,127.205 1214.57,126.727 1215.81,126.249 
  1217.05,125.771 1218.29,125.292 1219.52,124.814 1220.76,124.336 1222,123.858 1223.23,123.38 1224.47,122.902 1225.71,122.424 1226.95,121.946 1228.18,121.468 
  1229.42,120.99 1230.66,120.512 1231.89,120.033 1233.13,119.555 1234.37,119.077 1235.61,118.599 1236.84,118.121 1238.08,117.643 1239.32,117.165 1240.55,116.687 
  1241.79,116.209 1243.03,115.731 1244.27,115.253 1245.5,114.779 1246.74,114.306 1247.98,113.833 1249.21,113.36 1250.45,112.887 1251.69,112.414 1252.93,111.941 
  1254.16,111.468 1255.4,110.994 1256.64,110.521 1257.87,110.048 1259.11,109.575 1260.35,109.102 1261.59,108.629 1262.82,108.156 1264.06,107.683 1265.3,107.209 
  1266.53,106.736 1267.77,106.263 1269.01,105.79 1270.25,105.317 1271.48,104.844 1272.72,104.371 1273.96,103.897 1275.19,103.424 1276.43,102.951 1277.67,102.478 
  1278.91,102.005 1280.14,101.532 1281.38,101.059 1282.62,100.586 1283.85,100.112 1285.09,99.6393 1286.33,99.1662 1287.57,98.6931 1288.8,98.2199 1290.04,97.7468 
  1291.28,97.2737 1292.51,96.8005 1293.75,96.3274 1294.99,95.8543 1296.23,95.3811 1297.46,94.908 1298.7,94.4349 1299.94,93.9618 1301.17,93.4886 1302.41,93.0358 
  1303.65,92.5996 1304.89,92.1634 1306.12,91.7271 1307.36,91.2909 1308.6,90.8547 1309.83,90.4185 1311.07,89.9823 1312.31,89.5461 1313.55,89.1098 1314.78,88.6736 
  1316.02,88.2374 1317.26,87.8012 1318.49,87.365 1319.73,86.9288 1320.97,86.4925 1322.21,86.1857 1323.44,86.1857 1324.68,86.1857 1325.92,86.1857 1327.15,86.1857 
  1328.39,86.1857 1329.63,86.1857 1330.87,86.1857 1332.1,86.1857 1333.34,86.1857 1334.58,86.1857 1335.81,86.1857 1337.05,86.1857 1338.29,86.1857 1339.53,86.1857 
  1340.76,86.1857 1342,86.1857 1343.24,86.1857 1344.48,86.1857 1345.71,86.1857 1346.95,86.1857 1348.19,86.1857 1349.42,86.1857 1350.66,86.1857 1351.9,86.1857 
  1353.14,86.1857 1354.37,86.1857 1355.61,86.1857 1356.85,86.1857 1358.08,86.1857 1359.32,86.1857 1360.56,86.1857 1361.8,86.1857 1363.03,86.1857 1364.27,86.1857 
  1365.51,86.1857 1366.74,86.1857 1367.98,86.1857 1369.22,86.1857 1370.46,86.1857 1371.69,86.1857 1372.93,86.1857 1374.17,86.1857 1375.4,86.1857 1376.64,86.1857 
  1377.88,86.1857 1379.12,86.1857 1380.35,86.1857 1381.59,86.1857 1382.83,86.1857 1384.06,86.1857 1385.3,86.1857 1386.54,86.1857 1387.78,86.1857 1389.01,86.1857 
  1390.25,86.1857 1391.49,86.1857 1392.72,86.1857 1393.96,86.1857 1395.2,86.1857 1396.44,86.1857 1397.67,86.1857 1398.91,86.1857 1400.15,86.1857 1401.38,86.1857 
  1402.62,86.1857 1403.86,86.1857 1405.1,86.1857 1406.33,86.1857 1407.57,86.1857 1408.81,86.1857 1410.04,86.1857 1411.28,86.1857 1412.52,86.1857 1413.76,86.1857 
  1414.99,86.1857 1416.23,86.1857 1417.47,86.1857 1418.7,86.1857 1419.94,86.1857 1421.18,86.1857 1422.42,86.1857 1423.65,86.1857 1424.89,86.1857 1426.13,86.1857 
  1427.36,86.1857 1428.6,86.1857 1429.84,86.1857 1431.08,86.1857 1432.31,86.1857 1433.55,86.1857 1434.79,86.1857 1436.02,86.1857 1437.26,86.1857 1438.5,86.1857 
  1439.74,86.1857 1440.97,86.1857 1442.21,86.1857 1443.45,86.1857 1444.68,86.1857 1445.92,86.1857 1447.16,86.1857 1448.4,86.1857 1449.63,86.1857 1450.87,86.1857 
  1452.11,86.1857 1453.34,86.1857 1454.58,86.1857 1455.82,86.1857 1457.06,86.1857 1458.29,86.1857 1459.53,86.1857 1460.77,86.1857 1462,86.1857 1463.24,86.1857 
  1464.48,86.1857 1465.72,86.1857 1466.95,86.1857 1468.19,86.1857 1469.43,86.1857 1470.66,86.1857 1471.9,86.1857 1473.14,86.1857 1474.38,86.1857 1475.61,86.1857 
  1476.85,86.1857 1478.09,86.1857 1479.32,86.1857 1480.56,86.1857 1481.8,86.1857 1483.04,86.1857 1484.27,86.1857 1485.51,86.1857 1486.75,86.1857 1487.98,86.1857 
  1489.22,86.1857 1490.46,86.1857 1491.7,86.1857 1492.93,86.1857 1494.17,86.1857 1495.41,86.1857 1496.65,86.1857 1497.88,86.1857 1499.12,86.1857 1500.36,86.1857 
  1501.59,86.1857 1502.83,86.1857 1504.07,86.1857 1505.31,86.1857 1506.54,86.1857 1507.78,86.1857 1509.02,86.1857 1510.25,86.1857 1511.49,86.1857 1512.73,86.1857 
  1513.97,86.1857 1515.2,86.1857 1516.44,86.1857 1517.68,86.1857 1518.91,86.1857 1520.15,86.1857 1521.39,86.1857 1522.63,86.1857 1523.86,86.1857 1525.1,86.1857 
  1526.34,86.1857 1527.57,86.1857 1528.81,86.1857 1530.05,86.1857 1531.29,86.1857 1532.52,86.1857 1533.76,86.1857 1535,86.1857 1536.23,86.1857 1537.47,86.1857 
  1538.71,86.1857 1539.95,86.1857 1541.18,86.1857 1542.42,86.1857 1543.66,86.1857 1544.89,86.1857 1546.13,86.1857 1547.37,86.1857 1548.61,86.1857 1549.84,86.1857 
  1551.08,86.1857 1552.32,86.1857 1553.55,86.1857 1554.79,86.1857 1556.03,86.1857 1557.27,86.1857 1558.5,86.1857 1559.74,86.1857 1560.98,86.1857 1562.21,86.1857 
  1563.45,86.1857 1564.69,86.1857 1565.93,86.1857 1567.16,86.1857 1568.4,86.1857 1569.64,86.1857 1570.87,86.1857 1572.11,86.1857 1573.35,86.1857 1574.59,86.1857 
  1575.82,86.1857 1577.06,86.1857 1578.3,86.1857 1579.53,86.1857 1580.77,86.1857 1582.01,86.1857 1583.25,86.1857 1584.48,86.1857 1585.72,86.1857 1586.96,86.1857 
  1588.19,86.1857 1589.43,86.1857 1590.67,86.1857 1591.91,86.1857 1593.14,86.1857 1594.38,86.1857 1595.62,86.1857 1596.85,86.1857 1598.09,86.1857 1599.33,86.1857 
  1600.57,86.1857 1601.8,86.1857 1603.04,86.1857 1604.28,86.1857 1605.51,86.1857 1606.75,86.1857 1607.99,86.1857 1609.23,86.1857 1610.46,86.1857 1611.7,86.1857 
  1612.94,86.1857 1614.17,86.1857 1615.41,86.1857 1616.65,86.1857 1617.89,86.1857 1619.12,86.1857 1620.36,86.1857 1621.6,86.1857 1622.83,86.1857 1624.07,86.1857 
  1625.31,86.1857 1626.55,86.1857 1627.78,86.1857 1629.02,86.1857 1630.26,86.1857 1631.49,86.1857 1632.73,86.1857 1633.97,86.1857 1635.21,86.1857 1636.44,86.1857 
  1637.68,86.1857 1638.92,86.1857 1640.15,86.1857 1641.39,86.1857 1642.63,86.1857 1643.87,86.1857 1645.1,86.1857 1646.34,86.1857 1647.58,86.1857 1648.82,86.1857 
  1650.05,86.1857 1651.29,86.1857 1652.53,86.1857 1653.76,86.1857 1655,86.1857 1656.24,86.1857 1657.48,86.1857 1658.71,86.1857 1659.95,86.1857 1661.19,86.1857 
  1662.42,86.1857 1663.66,86.1857 1664.9,86.1857 1666.14,86.1857 1667.37,86.1857 1668.61,86.1857 1669.85,86.1857 1671.08,86.1857 1672.32,86.1857 1673.56,86.1857 
  1674.8,86.1857 1676.03,86.1857 1677.27,86.1857 1678.51,86.1857 1679.74,86.1857 1680.98,86.1857 1682.22,86.1857 1683.46,86.1857 1684.69,86.1857 1685.93,86.1857 
  1687.17,86.1857 1688.4,86.1857 1689.64,86.1857 1690.88,86.1857 1692.12,86.1857 1693.35,86.1857 1694.59,86.1857 1695.83,86.1857 1697.06,86.1857 1698.3,86.1857 
  1699.54,86.1857 1700.78,86.1857 1702.01,86.1857 1703.25,86.1857 1704.49,86.1857 1705.72,86.1857 1706.96,86.1857 1708.2,86.1857 1709.44,86.1857 1710.67,86.1857 
  1711.91,86.1857 1713.15,86.1857 1714.38,86.1857 1715.62,86.1857 1716.86,86.1857 1718.1,86.1857 1719.33,86.1857 1720.57,86.1857 1721.81,86.1857 1723.04,86.1857 
  1724.28,86.1857 1725.52,86.1857 1726.76,86.1857 1727.99,86.1857 1729.23,86.1857 1730.47,86.1857 1731.7,86.1857 1732.94,86.1857 1734.18,86.1857 1735.42,86.1857 
  1736.65,86.1857 1737.89,86.1857 1739.13,86.1857 1740.36,86.1857 1741.6,86.1857 1742.84,86.1857 1744.08,86.1857 1745.31,86.1857 1746.55,86.1857 1747.79,86.1857 
  1749.02,86.1857 1750.26,86.1857 1751.5,86.1857 1752.74,86.1857 1753.97,86.1857 1755.21,86.1857 1756.45,86.1857 1757.68,86.1857 1758.92,86.1857 1760.16,86.1857 
  1761.4,86.1857 1762.63,86.1857 1763.87,86.1857 1765.11,86.1857 1766.34,86.1857 1767.58,86.1857 1768.82,86.1857 1770.06,86.1857 1771.29,86.1857 1772.53,86.1857 
  1773.77,86.1857 1775,86.1857 1776.24,86.1857 1777.48,86.1857 1778.72,86.1857 1779.95,86.1857 1781.19,86.1857 1782.43,86.1857 1783.66,86.1857 1784.9,86.1857 
  1786.14,86.1857 1787.38,86.1857 1788.61,86.1857 1789.85,86.1857 1791.09,86.1857 1792.32,86.1857 1793.56,86.1857 1794.8,86.1857 1796.04,86.1857 1797.27,86.1857 
  1798.51,86.1857 1799.75,86.1857 1800.99,86.1857 1802.22,86.1857 1803.46,86.1857 1804.7,86.1857 1805.93,86.1857 1807.17,86.1857 1808.41,86.1857 1809.65,86.1857 
  1810.88,86.1857 1812.12,86.1857 1813.36,86.1857 1814.59,86.1857 1815.83,86.1857 1817.07,86.1857 1818.31,86.1857 1819.54,86.1857 1820.78,86.1857 1822.02,86.1857 
  1823.25,86.1857 1824.49,86.1857 1825.73,86.1857 1826.97,86.1857 1828.2,86.1857 1829.44,86.1857 1830.68,86.1857 1831.91,86.1857 1833.15,86.1857 1834.39,86.1857 
  1835.63,86.1857 1836.86,86.1857 1838.1,86.1857 1839.34,86.1857 1840.57,86.1857 1841.81,86.1857 1843.05,86.1857 1844.29,86.1857 1845.52,86.1857 1846.76,86.1857 
  1848,86.1857 1849.23,86.1857 1850.47,86.1857 1851.71,86.1857 1852.95,86.1857 1854.18,86.1857 1855.42,86.1857 1856.66,86.1857 1857.89,86.1857 1859.13,86.1857 
  1860.37,86.1857 1861.61,86.1857 1862.84,86.1857 1864.08,86.1857 1865.32,86.1857 1866.55,86.1857 1867.79,86.1857 1869.03,86.1857 1870.27,86.1857 1871.5,86.1857 
  1872.74,86.1857 1873.98,86.1857 1875.21,86.1857 1876.45,86.1857 1877.69,86.1857 1878.93,86.1857 1880.16,86.1857 1881.4,86.1857 1882.64,86.1857 1883.87,86.1857 
  1885.11,86.1857 1886.35,86.1857 1887.59,86.1857 1888.82,86.1857 1890.06,86.1857 1891.3,86.1857 1892.53,86.1857 1893.77,86.1857 1895.01,86.1857 1896.25,86.1857 
  1897.48,86.1857 1898.72,86.1857 1899.96,86.1857 1901.19,86.1857 1902.43,86.1857 1903.67,86.1857 1904.91,86.1857 1906.14,86.1857 1907.38,86.1857 1908.62,86.1857 
  1909.85,86.1857 1911.09,86.1857 1912.33,86.1857 1913.57,86.1857 1914.8,86.1857 1916.04,86.1857 1917.28,86.1857 1918.51,86.1857 1919.75,86.1857 1920.99,86.1857 
  1922.23,86.1857 1923.46,86.1857 1924.7,86.1857 1925.94,86.1857 1927.17,86.1857 1928.41,86.1857 1929.65,86.1857 1930.89,86.1857 1932.12,86.1857 1933.36,86.1857 
  1934.6,86.1857 1935.83,86.1857 1937.07,86.1857 1938.31,86.1857 1939.55,86.1857 1940.78,86.1857 1942.02,86.1857 1943.26,86.1857 1944.49,86.1857 1945.73,86.1857 
  1946.97,86.1857 1948.21,86.1857 1949.44,86.1857 1950.68,86.1857 1951.92,86.1857 1953.16,86.1857 1954.39,86.1857 1955.63,86.1857 1956.87,86.1857 1958.1,86.1857 
  1959.34,86.1857 1960.58,86.1857 1961.82,86.1857 1963.05,86.1857 1964.29,86.1857 1965.53,86.1857 1966.76,86.1857 1968,86.1857 1969.24,86.1857 1970.48,86.1857 
  1971.71,86.1857 1972.95,86.1857 1974.19,86.1857 1975.42,86.1857 1976.66,86.1857 1977.9,86.1857 1979.14,86.1857 1980.37,86.1857 1981.61,86.1857 1982.85,86.1857 
  1984.08,86.1857 1985.32,86.1857 1986.56,86.1857 1987.8,86.1857 1989.03,86.1857 1990.27,86.1857 1991.51,86.1857 1992.74,86.1857 1993.98,86.1857 1995.22,86.1857 
  1996.46,86.1857 1997.69,86.1857 1998.93,86.1857 2000.17,86.1857 2001.4,86.1857 2002.64,86.1857 2003.88,86.1857 2005.12,86.1857 2006.35,86.1857 2007.59,86.1857 
  2008.83,86.1857 2010.06,86.1857 2011.3,86.1857 2012.54,86.1857 2013.78,86.1857 2015.01,86.1857 2016.25,86.1857 2017.49,86.1857 2018.72,86.1857 2019.96,86.1857 
  2021.2,86.1857 2022.44,86.1857 2023.67,86.1857 2024.91,86.1857 2026.15,86.1857 2027.38,86.1857 2028.62,86.1857 2029.86,86.1857 2031.1,86.1857 2032.33,86.1857 
  2033.57,86.1857 2034.81,86.1857 2036.04,86.1857 2037.28,86.1857 2038.52,86.1857 2039.76,86.1857 2040.99,86.1857 2042.23,86.1857 2043.47,86.1857 2044.7,86.1857 
  2045.94,86.1857 2047.18,86.1857 2048.42,86.1857 2049.65,86.1857 2050.89,86.1857 2052.13,86.1857 2053.36,86.1857 2054.6,86.1857 2055.84,86.1857 2057.08,86.1857 
  2058.31,86.1857 2059.55,86.1857 2060.79,86.1857 2062.02,86.1857 2063.26,86.1857 2064.5,86.1857 2065.74,86.1857 2066.97,86.1857 2068.21,86.1857 2069.45,86.1857 
  2070.68,86.1857 2071.92,86.1857 2073.16,86.1857 2074.4,86.1857 2075.63,86.1857 2076.87,86.1857 2078.11,86.1857 2079.34,86.1857 2080.58,86.1857 2081.82,86.1857 
  2083.06,86.1857 2084.29,86.1857 2085.53,86.1857 2086.77,86.1857 2088,86.1857 2089.24,86.1857 2090.48,86.1857 2091.72,86.1857 2092.95,86.1857 2094.19,86.1857 
  2095.43,86.1857 2096.66,86.1857 2097.9,86.1857 2099.14,86.1857 2100.38,86.1857 2101.61,86.1857 2102.85,86.1857 2104.09,86.1857 2105.33,86.1857 2106.56,86.1857 
  2107.8,86.1857 2109.04,86.1857 2110.27,86.1857 2111.51,86.1857 2112.75,86.1857 2113.99,86.1857 2115.22,86.1857 2116.46,86.1857 2117.7,86.1857 2118.93,86.1857 
  2120.17,86.1857 2121.41,86.1857 2122.65,86.1857 2123.88,86.1857 2125.12,86.1857 2126.36,86.1857 2127.59,86.1857 2128.83,86.1857 2130.07,86.1857 2131.31,86.1857 
  2132.54,86.1857 2133.78,86.1857 2135.02,86.1857 2136.25,86.1857 2137.49,86.1857 2138.73,86.1857 2139.97,86.1857 2141.2,86.1857 2142.44,86.1857 2143.68,86.1857 
  2144.91,86.1857 2146.15,86.1857 2147.39,86.1857 2148.63,86.1857 2149.86,86.1857 2151.1,86.1857 2152.34,86.1857 2153.57,86.1857 2154.81,86.1857 2156.05,86.1857 
  2157.29,86.1857 2158.52,86.1857 2159.76,86.1857 2161,86.1857 2162.23,86.1857 2163.47,86.1857 2164.71,86.1857 2165.95,86.1857 2167.18,86.1857 2168.42,86.1857 
  2169.66,86.1857 2170.89,86.1857 2172.13,86.1857 2173.37,86.1857 2174.61,86.1857 2175.84,86.1857 2177.08,86.1857 2178.32,86.1857 2179.55,86.1857 2180.79,86.1857 
  2182.03,86.1857 2183.27,86.1857 2184.5,86.1857 2185.74,86.1857 2186.98,86.1857 2188.21,86.1857 2189.45,86.1857 2190.69,86.1857 2191.93,86.1857 2193.16,86.1857 
  2194.4,86.1857 2195.64,86.1857 2196.87,86.1857 2198.11,86.1857 2199.35,86.1857 2200.59,86.1857 2201.82,86.1857 2203.06,86.1857 2204.3,86.1857 2205.53,86.1857 
  2206.77,86.1857 2208.01,86.1857 2209.25,86.1857 2210.48,86.1857 2211.72,86.1857 2212.96,86.1857 2214.19,86.1857 2215.43,86.1857 2216.67,86.1857 2217.91,86.1857 
  2219.14,86.1857 2220.38,86.1857 2221.62,86.1857 2222.85,86.1857 2224.09,86.1857 2225.33,86.1857 2226.57,86.1857 2227.8,86.1857 2229.04,86.1857 2230.28,86.1857 
  2231.51,86.1857 2232.75,86.1857 2233.99,86.1857 2235.23,86.1857 2236.46,86.1857 2237.7,86.1857 2238.94,86.1857 2240.17,86.1857 2241.41,86.1857 2242.65,86.1857 
  2243.89,86.1857 2245.12,86.1857 2246.36,86.1857 2247.6,86.1857 2248.83,86.1857 2250.07,86.1857 2251.31,86.1857 2252.55,86.1857 2253.78,86.1857 2255.02,86.1857 
  2256.26,86.1857 2257.5,86.1857 2258.73,86.1857 2259.97,86.1857 2261.21,86.1857 2262.44,86.1857 2263.68,86.1857 2264.92,86.1857 2266.16,86.1857 2267.39,86.1857 
  2268.63,86.1857 2269.87,86.1857 2271.1,86.1857 2272.34,86.1857 2273.58,86.1857 2274.82,86.1857 2276.05,86.1857 2277.29,86.1857 2278.53,86.1857 2279.76,86.1857 
  2281,86.1857 2282.24,86.1857 2283.48,86.1857 2284.71,86.1857 2285.95,86.1857 2287.19,86.1857 2288.42,86.1857 2289.66,86.1857 2290.9,86.1857 2292.14,86.1857 
  2293.37,86.1857 
  "></polyline>
<path clip-path="url(#clip200)" d="
M1651.53 214.069 L2282.82 214.069 L2282.82 93.1086 L1651.53 93.1086  Z
  " fill="#ffffff" fill-rule="evenodd" fill-opacity="1"></path>
<polyline clip-path="url(#clip200)" style="stroke:#000000; stroke-width:4; stroke-opacity:1; fill:none" points="
  1651.53,214.069 2282.82,214.069 2282.82,93.1086 1651.53,93.1086 1651.53,214.069 
  "></polyline>
<polyline clip-path="url(#clip200)" style="stroke:#009af9; stroke-width:4; stroke-opacity:1; fill:none" points="
  1674.85,153.589 1814.73,153.589 
  "></polyline>
<path clip-path="url(#clip200)" d="M 0 0 M1838.04 136.309 L1867.28 136.309 L1867.28 140.244 L1855.01 140.244 L1855.01 170.869 L1850.31 170.869 L1850.31 140.244 L1838.04 140.244 L1838.04 136.309 Z" fill="#000000" fill-rule="evenodd" fill-opacity="1"></path><path clip-path="url(#clip200)" d="M 0 0 M1873.74 147.929 Q1870.31 147.929 1868.32 150.614 Q1866.33 153.276 1866.33 157.929 Q1866.33 162.582 1868.3 165.267 Q1870.29 167.929 1873.74 167.929 Q1877.14 167.929 1879.13 165.244 Q1881.12 162.558 1881.12 157.929 Q1881.12 153.322 1879.13 150.637 Q1877.14 147.929 1873.74 147.929 M1873.74 144.318 Q1879.29 144.318 1882.46 147.929 Q1885.63 151.54 1885.63 157.929 Q1885.63 164.295 1882.46 167.929 Q1879.29 171.54 1873.74 171.54 Q1868.16 171.54 1864.99 167.929 Q1861.84 164.295 1861.84 157.929 Q1861.84 151.54 1864.99 147.929 Q1868.16 144.318 1873.74 144.318 Z" fill="#000000" fill-rule="evenodd" fill-opacity="1"></path><path clip-path="url(#clip200)" d="M 0 0 M1894.32 137.582 L1894.32 144.943 L1903.09 144.943 L1903.09 148.253 L1894.32 148.253 L1894.32 162.327 Q1894.32 165.498 1895.17 166.401 Q1896.05 167.304 1898.71 167.304 L1903.09 167.304 L1903.09 170.869 L1898.71 170.869 Q1893.78 170.869 1891.91 169.04 Q1890.03 167.188 1890.03 162.327 L1890.03 148.253 L1886.91 148.253 L1886.91 144.943 L1890.03 144.943 L1890.03 137.582 L1894.32 137.582 Z" fill="#000000" fill-rule="evenodd" fill-opacity="1"></path><path clip-path="url(#clip200)" d="M 0 0 M1919.34 157.836 Q1914.18 157.836 1912.19 159.017 Q1910.19 160.197 1910.19 163.045 Q1910.19 165.313 1911.68 166.656 Q1913.18 167.975 1915.75 167.975 Q1919.29 167.975 1921.42 165.475 Q1923.57 162.952 1923.57 158.785 L1923.57 157.836 L1919.34 157.836 M1927.83 156.077 L1927.83 170.869 L1923.57 170.869 L1923.57 166.933 Q1922.12 169.295 1919.94 170.429 Q1917.76 171.54 1914.62 171.54 Q1910.63 171.54 1908.27 169.318 Q1905.94 167.072 1905.94 163.322 Q1905.94 158.947 1908.85 156.725 Q1911.79 154.503 1917.6 154.503 L1923.57 154.503 L1923.57 154.086 Q1923.57 151.147 1921.63 149.549 Q1919.71 147.929 1916.21 147.929 Q1913.99 147.929 1911.88 148.461 Q1909.78 148.994 1907.83 150.059 L1907.83 146.123 Q1910.17 145.221 1912.37 144.781 Q1914.57 144.318 1916.65 144.318 Q1922.28 144.318 1925.06 147.234 Q1927.83 150.151 1927.83 156.077 Z" fill="#000000" fill-rule="evenodd" fill-opacity="1"></path><path clip-path="url(#clip200)" d="M 0 0 M1932.3 134.85 L1936.56 134.85 L1936.56 170.869 L1932.3 170.869 L1932.3 134.85 Z" fill="#000000" fill-rule="evenodd" fill-opacity="1"></path><path clip-path="url(#clip200)" d="M 0 0 M1966.14 147.929 Q1962.72 147.929 1960.73 150.614 Q1958.74 153.276 1958.74 157.929 Q1958.74 162.582 1960.7 165.267 Q1962.69 167.929 1966.14 167.929 Q1969.55 167.929 1971.54 165.244 Q1973.53 162.558 1973.53 157.929 Q1973.53 153.322 1971.54 150.637 Q1969.55 147.929 1966.14 147.929 M1966.14 144.318 Q1971.7 144.318 1974.87 147.929 Q1978.04 151.54 1978.04 157.929 Q1978.04 164.295 1974.87 167.929 Q1971.7 171.54 1966.14 171.54 Q1960.56 171.54 1957.39 167.929 Q1954.25 164.295 1954.25 157.929 Q1954.25 151.54 1957.39 147.929 Q1960.56 144.318 1966.14 144.318 Z" fill="#000000" fill-rule="evenodd" fill-opacity="1"></path><path clip-path="url(#clip200)" d="M 0 0 M1982.51 144.943 L1986.77 144.943 L1986.77 170.869 L1982.51 170.869 L1982.51 144.943 M1982.51 134.85 L1986.77 134.85 L1986.77 140.244 L1982.51 140.244 L1982.51 134.85 Z" fill="#000000" fill-rule="evenodd" fill-opacity="1"></path><path clip-path="url(#clip200)" d="M 0 0 M1991.24 134.85 L1995.5 134.85 L1995.5 170.869 L1991.24 170.869 L1991.24 134.85 Z" fill="#000000" fill-rule="evenodd" fill-opacity="1"></path><path clip-path="url(#clip200)" d="M 0 0 M2019.15 166.98 L2019.15 180.73 L2014.87 180.73 L2014.87 144.943 L2019.15 144.943 L2019.15 148.878 Q2020.5 146.563 2022.53 145.452 Q2024.59 144.318 2027.44 144.318 Q2032.16 144.318 2035.1 148.068 Q2038.06 151.818 2038.06 157.929 Q2038.06 164.04 2035.1 167.79 Q2032.16 171.54 2027.44 171.54 Q2024.59 171.54 2022.53 170.429 Q2020.5 169.295 2019.15 166.98 M2033.64 157.929 Q2033.64 153.23 2031.7 150.568 Q2029.78 147.883 2026.4 147.883 Q2023.02 147.883 2021.07 150.568 Q2019.15 153.23 2019.15 157.929 Q2019.15 162.628 2021.07 165.313 Q2023.02 167.975 2026.4 167.975 Q2029.78 167.975 2031.7 165.313 Q2033.64 162.628 2033.64 157.929 Z" fill="#000000" fill-rule="evenodd" fill-opacity="1"></path><path clip-path="url(#clip200)" d="M 0 0 M2057.56 148.924 Q2056.84 148.508 2055.98 148.322 Q2055.15 148.114 2054.13 148.114 Q2050.52 148.114 2048.57 150.475 Q2046.65 152.813 2046.65 157.211 L2046.65 170.869 L2042.37 170.869 L2042.37 144.943 L2046.65 144.943 L2046.65 148.971 Q2048 146.609 2050.15 145.475 Q2052.3 144.318 2055.38 144.318 Q2055.82 144.318 2056.35 144.387 Q2056.88 144.434 2057.53 144.549 L2057.56 148.924 Z" fill="#000000" fill-rule="evenodd" fill-opacity="1"></path><path clip-path="url(#clip200)" d="M 0 0 M2071.03 147.929 Q2067.6 147.929 2065.61 150.614 Q2063.62 153.276 2063.62 157.929 Q2063.62 162.582 2065.59 165.267 Q2067.58 167.929 2071.03 167.929 Q2074.43 167.929 2076.42 165.244 Q2078.41 162.558 2078.41 157.929 Q2078.41 153.322 2076.42 150.637 Q2074.43 147.929 2071.03 147.929 M2071.03 144.318 Q2076.58 144.318 2079.75 147.929 Q2082.93 151.54 2082.93 157.929 Q2082.93 164.295 2079.75 167.929 Q2076.58 171.54 2071.03 171.54 Q2065.45 171.54 2062.28 167.929 Q2059.13 164.295 2059.13 157.929 Q2059.13 151.54 2062.28 147.929 Q2065.45 144.318 2071.03 144.318 Z" fill="#000000" fill-rule="evenodd" fill-opacity="1"></path><path clip-path="url(#clip200)" d="M 0 0 M2104.45 148.878 L2104.45 134.85 L2108.71 134.85 L2108.71 170.869 L2104.45 170.869 L2104.45 166.98 Q2103.11 169.295 2101.05 170.429 Q2099.01 171.54 2096.14 171.54 Q2091.44 171.54 2088.48 167.79 Q2085.54 164.04 2085.54 157.929 Q2085.54 151.818 2088.48 148.068 Q2091.44 144.318 2096.14 144.318 Q2099.01 144.318 2101.05 145.452 Q2103.11 146.563 2104.45 148.878 M2089.94 157.929 Q2089.94 162.628 2091.86 165.313 Q2093.8 167.975 2097.18 167.975 Q2100.56 167.975 2102.51 165.313 Q2104.45 162.628 2104.45 157.929 Q2104.45 153.23 2102.51 150.568 Q2100.56 147.883 2097.18 147.883 Q2093.8 147.883 2091.86 150.568 Q2089.94 153.23 2089.94 157.929 Z" fill="#000000" fill-rule="evenodd" fill-opacity="1"></path><path clip-path="url(#clip200)" d="M 0 0 M2112.74 160.637 L2112.74 144.943 L2117 144.943 L2117 160.475 Q2117 164.156 2118.43 166.008 Q2119.87 167.836 2122.74 167.836 Q2126.19 167.836 2128.18 165.637 Q2130.19 163.438 2130.19 159.642 L2130.19 144.943 L2134.45 144.943 L2134.45 170.869 L2130.19 170.869 L2130.19 166.887 Q2128.64 169.248 2126.58 170.406 Q2124.55 171.54 2121.84 171.54 Q2117.37 171.54 2115.05 168.762 Q2112.74 165.984 2112.74 160.637 M2123.46 144.318 L2123.46 144.318 Z" fill="#000000" fill-rule="evenodd" fill-opacity="1"></path><path clip-path="url(#clip200)" d="M 0 0 M2157.58 145.938 L2157.58 149.92 Q2155.77 148.924 2153.94 148.438 Q2152.14 147.929 2150.29 147.929 Q2146.14 147.929 2143.85 150.568 Q2141.56 153.184 2141.56 157.929 Q2141.56 162.674 2143.85 165.313 Q2146.14 167.929 2150.29 167.929 Q2152.14 167.929 2153.94 167.443 Q2155.77 166.933 2157.58 165.938 L2157.58 169.873 Q2155.8 170.707 2153.87 171.123 Q2151.98 171.54 2149.82 171.54 Q2143.97 171.54 2140.52 167.859 Q2137.07 164.179 2137.07 157.929 Q2137.07 151.586 2140.54 147.952 Q2144.04 144.318 2150.1 144.318 Q2152.07 144.318 2153.94 144.735 Q2155.82 145.128 2157.58 145.938 Z" fill="#000000" fill-rule="evenodd" fill-opacity="1"></path><path clip-path="url(#clip200)" d="M 0 0 M2166.26 137.582 L2166.26 144.943 L2175.03 144.943 L2175.03 148.253 L2166.26 148.253 L2166.26 162.327 Q2166.26 165.498 2167.11 166.401 Q2167.99 167.304 2170.66 167.304 L2175.03 167.304 L2175.03 170.869 L2170.66 170.869 Q2165.73 170.869 2163.85 169.04 Q2161.98 167.188 2161.98 162.327 L2161.98 148.253 L2158.85 148.253 L2158.85 144.943 L2161.98 144.943 L2161.98 137.582 L2166.26 137.582 Z" fill="#000000" fill-rule="evenodd" fill-opacity="1"></path><path clip-path="url(#clip200)" d="M 0 0 M2179.5 144.943 L2183.76 144.943 L2183.76 170.869 L2179.5 170.869 L2179.5 144.943 M2179.5 134.85 L2183.76 134.85 L2183.76 140.244 L2179.5 140.244 L2179.5 134.85 Z" fill="#000000" fill-rule="evenodd" fill-opacity="1"></path><path clip-path="url(#clip200)" d="M 0 0 M2198.27 147.929 Q2194.85 147.929 2192.86 150.614 Q2190.86 153.276 2190.86 157.929 Q2190.86 162.582 2192.83 165.267 Q2194.82 167.929 2198.27 167.929 Q2201.67 167.929 2203.67 165.244 Q2205.66 162.558 2205.66 157.929 Q2205.66 153.322 2203.67 150.637 Q2201.67 147.929 2198.27 147.929 M2198.27 144.318 Q2203.83 144.318 2207 147.929 Q2210.17 151.54 2210.17 157.929 Q2210.17 164.295 2207 167.929 Q2203.83 171.54 2198.27 171.54 Q2192.69 171.54 2189.52 167.929 Q2186.37 164.295 2186.37 157.929 Q2186.37 151.54 2189.52 147.929 Q2192.69 144.318 2198.27 144.318 Z" fill="#000000" fill-rule="evenodd" fill-opacity="1"></path><path clip-path="url(#clip200)" d="M 0 0 M2236.19 155.221 L2236.19 170.869 L2231.93 170.869 L2231.93 155.359 Q2231.93 151.679 2230.49 149.85 Q2229.06 148.022 2226.19 148.022 Q2222.74 148.022 2220.75 150.221 Q2218.76 152.42 2218.76 156.216 L2218.76 170.869 L2214.48 170.869 L2214.48 144.943 L2218.76 144.943 L2218.76 148.971 Q2220.29 146.633 2222.35 145.475 Q2224.43 144.318 2227.14 144.318 Q2231.61 144.318 2233.9 147.096 Q2236.19 149.85 2236.19 155.221 Z" fill="#000000" fill-rule="evenodd" fill-opacity="1"></path></svg>